/* XPM */
static char * addtab_xpm[] = {
"24 24 53 1",
" 	c None",
".	c #636362",
"+	c #9B9A99",
"@	c #848382",
"#	c #8B8986",
"$	c #8E8D8A",
"%	c #DCDAD5",
"&	c #878580",
"*	c #CFCDC8",
"=	c #85837E",
"-	c #C7C5C1",
";	c #A9A8A4",
">	c #858481",
",	c #D4D2CE",
"'	c #D2D0CB",
")	c #D2D1CC",
"!	c #D5D3CE",
"~	c #D3D2CD",
"{	c #BCBBB6",
"]	c #CECCC7",
"^	c #D9D7D2",
"/	c #AEADA9",
"(	c #C0BFBA",
"_	c #D3D1CC",
":	c #BFBDB9",
"<	c #73726F",
"[	c #A4A29E",
"}	c #72716F",
"|	c #747371",
"1	c #5D5C5A",
"2	c #706F6D",
"3	c #848380",
"4	c #7E7D7A",
"5	c #959490",
"6	c #B6B4B0",
"7	c #CECDC8",
"8	c #8A8985",
"9	c #B3B1AD",
"0	c #AFADA9",
"a	c #666563",
"b	c #898885",
"c	c #A7A5A2",
"d	c #807F7C",
"e	c #BCBAB6",
"f	c #CFCDC9",
"g	c #C9C7C3",
"h	c #AEACA7",
"i	c #E1E0DC",
"j	c #E8E7E4",
"k	c #F5F5F3",
"l	c #F7F6F5",
"m	c #FDFDFD",
"n	c #FFFFFF",
".+++++++++++++++++@#$$$$",
"+%%%%%%%%%%%%%%%%%&*%%%%",
"+%%%%%%%%%%%%%%%%%=*%%%%",
"+%%%%%%%%%%%%%%%%%=*%%%%",
"+%%-;>$,')!~{]^/(%=*%%%%",
"+%%_:<$[}|1234567%=*%%%%",
"+%%%%8$9/0ab6cd%%%=*%%%%",
"+%%%%%%%%%e%%fg%%%=*%%%%",
"+%%%%%%%%%%%%%%%%%=*%%%%",
"+%%%%%%%%%%%%%%%%%hijjjj",
"+kllllllllllllllllllllll",
"+mnnnnnnnnnnnnnnnnnnnnnn",
"+mnnnnnnnnnnnnnnnnnnnnnn",
"+mnnnnnnnnnnnnnnnnnnnnnn",
"+mnnnnnnnnnnnnnnnnnnnnnn",
"+mnnnnnnnnnnnnnnnnnnnnnn",
"+mnnnnnnnnnnnnnnnnnnnnnn",
"+mnnnnnnnnnnnnnnnnnnnnnn",
"+mnnnnnnnnnnnnnnnnnnnnnn",
"+mnnnnnnnnnnnnnnnnnnnnnn",
"+mnnnnnnnnnnnnnnnnnnnnnn",
"+mnnnnnnnnnnnnnnnnnnnnnn",
"+mnnnnnnnnnnnnnnnnnnnnnn",
"+mnnnnnnnnnnnnnnnnnnnnnn"};
