/* XPM */
static char * addtab_xpm[] = {
"22 22 140 2",
"  	c None",
". 	c #535353",
"+ 	c #4A4A4A",
"@ 	c #424242",
"# 	c #3A3A3A",
"$ 	c #313131",
"% 	c #292929",
"& 	c #212121",
"* 	c #181818",
"= 	c #101010",
"- 	c #080808",
"; 	c #000000",
"> 	c #4C4C4C",
", 	c #DEDEDE",
"' 	c #D6D6D6",
") 	c #C6C6C6",
"! 	c #B4B4B4",
"~ 	c #989898",
"{ 	c #464646",
"] 	c #FFFFFF",
"^ 	c #ECECEC",
"/ 	c #E1E1E1",
"( 	c #141414",
"_ 	c #C9C9C9",
": 	c #3F3F3F",
"< 	c #393939",
"[ 	c #3E3E3E",
"} 	c #E0E0E0",
"| 	c #333333",
"1 	c #232300",
"2 	c #FDFDFD",
"3 	c #F0EEEC",
"4 	c #CFCBC4",
"5 	c #B8B1A9",
"6 	c #857F7A",
"7 	c #F6F611",
"8 	c #FEFDFC",
"9 	c #FDFAF7",
"0 	c #E4E0DB",
"a 	c #D0C8C1",
"b 	c #A09B97",
"c 	c #DBDA4D",
"d 	c #FFFF00",
"e 	c #FEFDFB",
"f 	c #FCF8F5",
"g 	c #FBF3EE",
"h 	c #F9F0E8",
"i 	c #EADFD5",
"j 	c #BBB2AB",
"k 	c #494900",
"l 	c #FEFCFB",
"m 	c #FAF4EE",
"n 	c #F9EFE7",
"o 	c #F7EBE1",
"p 	c #F5E6D9",
"q 	c #C6B8AC",
"r 	c #AAA538",
"s 	c #FFFFDA",
"t 	c #FFFEFE",
"u 	c #FDFCFA",
"v 	c #FBF7F3",
"w 	c #FAF3ED",
"x 	c #F8EEE6",
"y 	c #F6EADF",
"z 	c #F3E1D2",
"A 	c #D2C0B1",
"B 	c #FDFBFA",
"C 	c #FCF7F3",
"D 	c #FAF2EC",
"E 	c #F7EADF",
"F 	c #F5E6D8",
"G 	c #F4E1D2",
"H 	c #F2DDCB",
"I 	c #D0BCAB",
"J 	c #FFFFC3",
"K 	c #FFFFDD",
"L 	c #FAF3EC",
"M 	c #F8EDE4",
"N 	c #F7EADE",
"O 	c #F5E5D8",
"P 	c #F3E1D1",
"Q 	c #F0D8C3",
"R 	c #CFB8A5",
"S 	c #FBF6F2",
"T 	c #FDFAF8",
"U 	c #FBF6F1",
"V 	c #FAF2EB",
"W 	c #F8EEE4",
"X 	c #F6E8DD",
"Y 	c #F5E5D7",
"Z 	c #F3E0D0",
"` 	c #F1DCC9",
" .	c #EFD8C3",
"..	c #EED3BC",
"+.	c #CEB49F",
"@.	c #F6E9DD",
"#.	c #F4E4D6",
"$.	c #EFD8C2",
"%.	c #ECCEB5",
"&.	c #CCB099",
"*.	c #F6E8DC",
"=.	c #F2DFCE",
"-.	c #F1DBC8",
";.	c #EFD6C1",
">.	c #EED2BB",
",.	c #ECCEB4",
"'.	c #EAC9AD",
").	c #CBAC93",
"!.	c #FBF5F0",
"~.	c #F9F0E9",
"{.	c #F4E3D5",
"].	c #F2E0CF",
"^.	c #F1DAC7",
"/.	c #EFD7C1",
"(.	c #EED2BA",
"_.	c #E9C5A6",
":.	c #C9A88D",
"<.	c #F6E8DB",
"[.	c #F4E3D4",
"}.	c #F2DECE",
"|.	c #F1DBC7",
"1.	c #EFD6C0",
"2.	c #ECCDB3",
"3.	c #EAC9AC",
"4.	c #E8C5A6",
"5.	c #E7C2A2",
"6.	c #C8A487",
"7.	c #D8D0CA",
"8.	c #D7CCC4",
"9.	c #D6C8BE",
"0.	c #D4C4B8",
"a.	c #D2C0B2",
"b.	c #D1BDAC",
"c.	c #CFB8A6",
"d.	c #CEB5A0",
"e.	c #CDB09A",
"f.	c #CBAD94",
"g.	c #C9A88E",
"h.	c #C8A488",
"i.	c #C7A081",
"                                            ",
"            . + @ # $ % & * = - ; ;         ",
"            > , , , , , , ' ) ! ; ~ ;       ",
"            { , ] ] ] ] ] ] ^ / ( _ ~ ;     ",
"            : , ] ] ] ] ] ] ] ^ % ] _ ~ ;   ",
"            < , ] ] ] ] ] ] ] ] [ } ] _ ~ ; ",
"            | , ] ] ] ] ] ] ] ] . [ % ( ; ; ",
"            1 , ] ] ] ] ] ] ] ] 2 3 4 5 6 ; ",
"    1     1 7 1 ] ] 1 ] ] ] ] ] 8 9 0 a b ; ",
"  1 c 1   1 d 1 ] 1 c 1 ] ] ] e f g h i j ; ",
"    1 d k c d c k d 1 ] ] ] l f m n o p q ; ",
"      k d r s r d k ] ] t u v w x y p z A ; ",
"  1 1 c r s s s r c 1 1 B C D x E F G H I ; ",
"1 7 d d s J K J s d d 7 1 L M N O P H Q R ; ",
"  1 1 c r s s s r c 1 1 S L M N O P H Q R ; ",
"      k d r s r d k T U V W X Y Z `  ...+.; ",
"    1 d k c d c k d 1 V M @.#.Z ` $...%.&.; ",
"  1 c 1   1 d 1 9 1 c 1 *.#.=.-.;.>.,.'.).; ",
"    1     1 7 1 !.~.1 *.{.].^./.(.,.'._.:.; ",
"            1 , h o <.[.}.|.1.(.2.3.4.5.6.; ",
"            ; 7.7.8.9.0.a.b.c.d.e.f.g.h.i.; ",
"            ; ; ; ; ; ; ; ; ; ; ; ; ; ; ; ; "};
