/* XPM */
static char * back_xpm[] = {
"24 24 148 2",
"  	c None",
". 	c #0E3A56",
"+ 	c #0E3652",
"@ 	c #123A56",
"# 	c #1E4662",
"$ 	c #0E3E5E",
"% 	c #26567A",
"& 	c #3A5E7E",
"* 	c #365676",
"= 	c #12425E",
"- 	c #1A425E",
"; 	c #6E96B2",
"> 	c #769AB6",
", 	c #124262",
"' 	c #1E4A66",
") 	c #7296B2",
"! 	c #D2E2F2",
"~ 	c #9EBACE",
"{ 	c #2A526E",
"] 	c #6E8AA6",
"^ 	c #D6DEEA",
"/ 	c #DEEAF6",
"( 	c #0E5A7A",
"_ 	c #0A3E5E",
": 	c #D2DEEA",
"< 	c #FEFEFE",
"[ 	c #B2DEEA",
"} 	c #7EAEC6",
"| 	c #167EA6",
"1 	c #0E2E46",
"2 	c #6E8EAA",
"3 	c #DEEEF2",
"4 	c #7ACEE2",
"5 	c #56AAC6",
"6 	c #26AACA",
"7 	c #0A8EB2",
"8 	c #DEE2EA",
"9 	c #FAF6FA",
"0 	c #DAF2F6",
"a 	c #8EDAE6",
"b 	c #3ABAD2",
"c 	c #369EC2",
"d 	c #72BAD2",
"e 	c #AEDEEA",
"f 	c #E6F6FA",
"g 	c #FAFAFE",
"h 	c #DAF6FE",
"i 	c #5296B6",
"j 	c #2A5272",
"k 	c #6E8EA6",
"l 	c #CEDEEE",
"m 	c #F2F6FA",
"n 	c #92D2E6",
"o 	c #42C6D6",
"p 	c #12AACA",
"q 	c #16A6C6",
"r 	c #1AA2C6",
"s 	c #32AECA",
"t 	c #76CAE2",
"u 	c #B6E6F6",
"v 	c #D6F2FA",
"w 	c #DEF6FE",
"x 	c #C2EEF6",
"y 	c #020202",
"z 	c #527A9A",
"A 	c #A6C6DA",
"B 	c #D2EEFA",
"C 	c #AADEEA",
"D 	c #82D2E6",
"E 	c #4EC6DA",
"F 	c #12AECE",
"G 	c #0A9EC2",
"H 	c #0E9AC2",
"I 	c #4EBED6",
"J 	c #BAE6EE",
"K 	c #B2E2EE",
"L 	c #8ED2E6",
"M 	c #5EB6D2",
"N 	c #328AAE",
"O 	c #125676",
"P 	c #2692B6",
"Q 	c #2AB6CE",
"R 	c #32CEDE",
"S 	c #26CAE2",
"T 	c #1AB6D6",
"U 	c #12A2CA",
"V 	c #0E9ABE",
"W 	c #0E96BE",
"X 	c #3AB2CE",
"Y 	c #72C2D6",
"Z 	c #82CADE",
"` 	c #6ABAD6",
" .	c #42A6CA",
"..	c #1E82A6",
"+.	c #062636",
"@.	c #06526E",
"#.	c #12B6D2",
"$.	c #22CEE2",
"%.	c #22CADE",
"&.	c #12AED2",
"*.	c #0EA2C6",
"=.	c #1292B2",
"-.	c #168EB2",
";.	c #1A92B2",
">.	c #1A96B6",
",.	c #1696BA",
"'.	c #0A2236",
").	c #0E5672",
"!.	c #0E8AB2",
"~.	c #2ABECE",
"{.	c #36D6E2",
"].	c #16B2CE",
"^.	c #2ABED6",
"/.	c #32C2D2",
"(.	c #2EBECE",
"_.	c #2EBAD2",
":.	c #22BACE",
"<.	c #16B2CA",
"[.	c #16BAD6",
"}.	c #128EB2",
"|.	c #061626",
"1.	c #2AC6DA",
"2.	c #4ADEEA",
"3.	c #1296B6",
"4.	c #127A9E",
"5.	c #126686",
"6.	c #126A92",
"7.	c #12668E",
"8.	c #0E5E82",
"9.	c #0E5272",
"0.	c #061E2E",
"a.	c #26B6CA",
"b.	c #36DAE6",
"c.	c #0E7296",
"d.	c #0E567A",
"e.	c #0A3652",
"f.	c #0A223A",
"g.	c #0A2A3E",
"h.	c #229AB6",
"i.	c #0E5E7E",
"j.	c #061E32",
"k.	c #0E769E",
"l.	c #12567A",
"m.	c #061A2A",
"n.	c #0E4E6E",
"o.	c #0E4A6E",
"p.	c #0A364E",
"q.	c #060E1A",
"                        .                       ",
"                      + .                       ",
"                    @ # $                       ",
"                  % & * =                       ",
"                - ; > & ,                       ",
"              ' ) ! ~ % $                       ",
"            { ] ^ / ~ ( _                       ",
"          # ] : < [ } | 1 1 1 1 1 1 1 1 1 1     ",
"        - 2 ^ < 3 4 5 6 7 7 7 7 7 7 7 7 7 1     ",
"      { ) 8 9 0 a b b 6 c d e f g < g h i 1     ",
"    j k l m / n o p q r s t u v w h x n i 1     ",
"  y z A B C D E F G G H q I 4 C J K L M N 1     ",
"  y O P Q R S T U V W W V r X Y Z Z `  ...1     ",
"    +.@.7 #.$.%.&.*.U =.W =.=.-.;.>.;.,.| 1     ",
"      '.).!.~.{.$.T &.&.].^./.(._.:.<.[.}.1     ",
"        |.( V 1.2.$.p =.3.4.5.6.6.6.7.8.9.1     ",
"          0.).;.a.b.a.c.d.e.f.g.+.+.g.g.f.1     ",
"            +.9.-.Q h.i._                       ",
"              j.( k.c.l.$                       ",
"                m.( 6.n.,                       ",
"                  +._ o.$                       ",
"                    |.p._                       ",
"                      q..                       ",
"                        |.                      "};
