/* XPM */
static char * bible_xpm[] = {
"16 16 106 2",
"  	c None",
". 	c #AFAEA5",
"+ 	c #ADADA6",
"@ 	c #ADACA2",
"# 	c #A7A79C",
"$ 	c #A0A094",
"% 	c #98988C",
"& 	c #919184",
"* 	c #89887B",
"= 	c #7F7E72",
"- 	c #BAB7AE",
"; 	c #E0D514",
"> 	c #AEADA5",
", 	c #ABAAA1",
"' 	c #A8A89E",
") 	c #A3A398",
"! 	c #9D9D91",
"~ 	c #97968A",
"{ 	c #908F82",
"] 	c #89897B",
"^ 	c #848375",
"/ 	c #BAB7AC",
"( 	c #A9A89E",
"_ 	c #A6A69B",
": 	c #A1A196",
"< 	c #9A998D",
"[ 	c #939285",
"} 	c #8D8C7F",
"| 	c #888779",
"1 	c #C2BEB3",
"2 	c #A09F94",
"3 	c #9C9B8F",
"4 	c #969589",
"5 	c #8F8E81",
"6 	c #8A897C",
"7 	c #858577",
"8 	c #828173",
"9 	c #C6C2B7",
"0 	c #959488",
"a 	c #908F83",
"b 	c #88887C",
"c 	c #868578",
"d 	c #7F7F71",
"e 	c #CAC5BB",
"f 	c #9B9A8F",
"g 	c #949387",
"h 	c #929285",
"i 	c #8E8E81",
"j 	c #89897D",
"k 	c #838277",
"l 	c #818173",
"m 	c #7E7D70",
"n 	c #7C7C6E",
"o 	c #C9C5BA",
"p 	c #949488",
"q 	c #8D8C80",
"r 	c #8B8A7E",
"s 	c #87867B",
"t 	c #848377",
"u 	c #7F7E71",
"v 	c #7C7C6F",
"w 	c #7A7A6D",
"x 	c #7A796D",
"y 	c #C8C4BA",
"z 	c #8E8D81",
"A 	c #868579",
"B 	c #838276",
"C 	c #807F73",
"D 	c #7C7C70",
"E 	c #78786C",
"F 	c #77766B",
"G 	c #77766A",
"H 	c #7D7D70",
"I 	c #7C7B6F",
"J 	c #79796D",
"K 	c #757469",
"L 	c #747469",
"M 	c #C7C3B9",
"N 	c #7B7B6D",
"O 	c #7B7A6D",
"P 	c #79786C",
"Q 	c #76756A",
"R 	c #747369",
"S 	c #737268",
"T 	c #717167",
"U 	c #C6C2B9",
"V 	c #828275",
"W 	c #79796C",
"X 	c #727267",
"Y 	c #717166",
"Z 	c #707066",
"` 	c #C6C2B8",
" .	c #7A796C",
"..	c #828175",
"+.	c #79786B",
"@.	c #737368",
"#.	c #706F66",
"$.	c #6F6E66",
"%.	c #6E6E65",
"&.	c #C5C1B8",
"*.	c #818174",
"=.	c #78786B",
"-.	c #717066",
";.	c #6D6D64",
">.	c #6C6B63",
",.	c #C2BEB4",
"                                ",
"      . + . @ # $ % & * = -     ",
"    ; ; > , ' ) ! ~ { ] ^ /     ",
"    ; ; . ( _ : < [ } | ^ 1     ",
"; ; ; ; ; ; 2 3 4 5 6 7 8 9     ",
"; ; ; ; ; ; < 0 a b c 8 d e     ",
"    ; ; f g h i j k l m n o     ",
"    ; ; p q r s t u v w x y     ",
"    ; ; z A B C D x E F G y     ",
"    ; ; b u H I J G K L L M     ",
"    ; ; t N O P Q R S T T U     ",
"    ; ; V w W G L X Y Z Z `     ",
"       ... .+.Q @.Y #.$.%.&.    ",
"      x *.x =.Q S -.$.;.>.,.    ",
"        y y y y y y y y y y     ",
"                                "};
