/* XPM */
static char * biblestudy_xpm[] = {
"16 16 8 1",
" 	c None",
".	c #6C6B63",
"+	c #C5C5C5",
"@	c #A0593D",
"#	c #FFFFFF",
"$	c #B66545",
"%	c #C16C4A",
"&	c #E0D514",
" ...........    ",
" ..+++++++++    ",
" .@.#########   ",
" .@@..........  ",
" .@$.$$$$$$$$.  ",
" .@$.$%%&%%%$.  ",
" .@$.$%%&%%%$.  ",
" .@$.$&&&&&%$.  ",
" .@$.$%%&%%%$.  ",
" .@$.$%%&%%%$.  ",
" .@$.$%%&%%%$.  ",
" .@$.$%%&%%%$.  ",
" .@$.$%%&%%%$.  ",
"  .@.$$$$$$$$.  ",
"   ...........  ",
"                "};
