/* XPM */
static char * booktree_xpm[] = {
"24 24 141 2",
"  	c None",
". 	c #FFFFFF",
"+ 	c #F4F4F4",
"@ 	c #EFEFEF",
"# 	c #FBFBFB",
"$ 	c #CECEA3",
"% 	c #969607",
"& 	c #80802F",
"* 	c #F3F3F3",
"= 	c #B6B6B6",
"- 	c #C2C2C2",
"; 	c #CBCBCB",
"> 	c #D5D5D5",
", 	c #E4E4E4",
"' 	c #D8D8D8",
") 	c #C7C7C7",
"! 	c #D7D7D7",
"~ 	c #E9E9E9",
"{ 	c #D4D4D4",
"] 	c #EDEDED",
"^ 	c #F7F7F7",
"/ 	c #BFBFB1",
"( 	c #7D7D2D",
"_ 	c #8D8D4F",
": 	c #AAAAAA",
"< 	c #BCBCBC",
"[ 	c #B5B5B5",
"} 	c #C5C5C5",
"| 	c #CACACA",
"1 	c #E2E2E2",
"2 	c #C0C0C0",
"3 	c #C4C4C4",
"4 	c #CFCFCF",
"5 	c #DDDDDD",
"6 	c #F5F5F5",
"7 	c #E3E3C3",
"8 	c #DEDE84",
"9 	c #C3C39E",
"0 	c #F0F0F0",
"a 	c #D3D3D3",
"b 	c #DADADA",
"c 	c #E7E7E7",
"d 	c #F2F2F2",
"e 	c #D7D7BD",
"f 	c #CFCF65",
"g 	c #A8A85E",
"h 	c #A7A7A7",
"i 	c #ABABAB",
"j 	c #8D8D8D",
"k 	c #ECECEC",
"l 	c #D2D2D2",
"m 	c #FCFCFC",
"n 	c #E1E1E1",
"o 	c #E5E5C9",
"p 	c #DADA96",
"q 	c #D0D0BB",
"r 	c #F8F8F8",
"s 	c #DFDFC0",
"t 	c #E0E060",
"u 	c #B4B45A",
"v 	c #E6E6E6",
"w 	c #A3A3A3",
"x 	c #A6A6A6",
"y 	c #A0A0A0",
"z 	c #B7B7B7",
"A 	c #A4A4A4",
"B 	c #EEEEEE",
"C 	c #A2A2A2",
"D 	c #AEAEAE",
"E 	c #818181",
"F 	c #B9B9B9",
"G 	c #959595",
"H 	c #D6D6D6",
"I 	c #878787",
"J 	c #CECECE",
"K 	c #BABABA",
"L 	c #DFDFDF",
"M 	c #EDEDEC",
"N 	c #F9F9F9",
"O 	c #D2D2A7",
"P 	c #CACA89",
"Q 	c #DDDDC7",
"R 	c #BFBFBC",
"S 	c #94938F",
"T 	c #92918D",
"U 	c #979692",
"V 	c #DFDFDD",
"W 	c #F6F6F6",
"X 	c #A8A866",
"Y 	c #787800",
"Z 	c #7B7B38",
"` 	c #C5C5C3",
" .	c #BCBCB9",
"..	c #B2B2AF",
"+.	c #B8B7B5",
"@.	c #B6B6B3",
"#.	c #A9A9A5",
"$.	c #B4B4B1",
"%.	c #DFDFDE",
"&.	c #D3D3CA",
"*.	c #BCBCA5",
"=.	c #DFDFD7",
"-.	c #C0BFBD",
";.	c #989793",
">.	c #9E9D9A",
",.	c #9C9B98",
"'.	c #9D9C99",
").	c #999894",
"!.	c #B0B0B0",
"~.	c #F9F9F8",
"{.	c #F8F8F7",
"].	c #FDFDFD",
"^.	c #FEFEFE",
"/.	c #B8B8B8",
"(.	c #BBBBBB",
"_.	c #B1B1B1",
":.	c #A5A5A5",
"<.	c #C8C8C8",
"[.	c #BEBEBE",
"}.	c #BFBFBF",
"|.	c #E8E8E8",
"1.	c #C9C9C9",
"2.	c #D9D9D9",
"3.	c #DEDEDE",
"4.	c #ADADAD",
"5.	c #DCDCDC",
"6.	c #CCCCCC",
"7.	c #E3E3E3",
"8.	c #B2B2B2",
"9.	c #CDCDCD",
"0.	c #C3C3C3",
"a.	c #DBDBDB",
"b.	c #E5E5E5",
"c.	c #D1D1D1",
"d.	c #B4B4B4",
"e.	c #B3B3B3",
"f.	c #9A9A9A",
"g.	c #CFCFB0",
"h.	c #A5A533",
"i.	c #A0A06B",
"j.	c #FAFAFA",
". . + @ . . . . . . . . . . . . . . . . . . . . ",
"# # $ % & * = - ; > , ' ) ! ~ { ] . . . . . . . ",
"] ^ / ( _ # : < < [ } | 1 2 3 4 5 . . . . . . . ",
"+ . . . # 6 . . . . . . . . . . . . . . . . . . ",
"+ . . . 7 8 9 0 a ^ 6 b c 0 . . . . . . . . . . ",
"d + + + e f g , h i j [ i 3 . . . . . . . . . . ",
"+ . . . k l l m . . n . . . . . . . . . . . . . ",
"+ . . . o p q r b . . . k . @ . . ^ . m 6 m . , ",
"d + + + s t u v w x y z A B C w D E F G H I J K ",
"+ . . . L < F d d d d d M @ # . . . . . N . . . ",
"+ . . . O P Q R S T U T T T V . . . . . . . . . ",
"W + @ + X Y Z `  ...+.@.#.$.%.. . . . . . . . . ",
". . + . &.*.=.-.;.>.,.;.'.).V . . . . . . . . . ",
". . + . . . ) !.@ ~.{.^ ~.~.].. . . ].^.. . . . ",
". . @ + + + /.(.J 1 _.:.| | <.@ [.}.2 (.4 m . . ",
". . + . . . - K b 0 |.<.1.1.H ^ H 4 2.l 3.# . . ",
". . + . . . > ) ].. . . . . . . . . . . . . . . ",
". . @ + + + (.2 J > [.4.}.5.! }.l | { 6.7.1 J ) ",
". . + . . . 8.C l 1 J = 4 < c 9.2.J 0.= l ; , | ",
". . + . . . L ! . . . . . . . . . . . . . . . . ",
". . + . . . /.!.> a.; |.4 b.~ B c ' c.~ n B r K ",
". . N + + + d._.J 3.C /.e._.[.5.9.A 2 F !.< 5 f.",
". . . . . . 6 0 # . . . . . . . . . . . . . . . ",
". . g.h.i.j.5.6 . . . . . ^ . ^ . . . . . . . . "};
