/* XPM */
static char * book_xpm[] = {
"16 16 113 2",
"  	c None",
". 	c #AFAEA5",
"+ 	c #ADADA6",
"@ 	c #ADACA2",
"# 	c #A7A79C",
"$ 	c #A0A094",
"% 	c #98988C",
"& 	c #919184",
"* 	c #89887B",
"= 	c #7F7E72",
"- 	c #BAB7AE",
"; 	c #ABAAA1",
"> 	c #AEADA5",
", 	c #A8A89E",
"' 	c #A3A398",
") 	c #9D9D91",
"! 	c #97968A",
"~ 	c #908F82",
"{ 	c #89897B",
"] 	c #848375",
"^ 	c #BAB7AC",
"/ 	c #A9A89E",
"( 	c #A6A69B",
"_ 	c #A1A196",
": 	c #9A998D",
"< 	c #939285",
"[ 	c #8D8C7F",
"} 	c #888779",
"| 	c #C2BEB3",
"1 	c #A4A499",
"2 	c #AAA9A0",
"3 	c #A09F94",
"4 	c #9C9B8F",
"5 	c #969589",
"6 	c #8F8E81",
"7 	c #8A897C",
"8 	c #858577",
"9 	c #828173",
"0 	c #C6C2B7",
"a 	c #9C9C90",
"b 	c #A3A298",
"c 	c #959488",
"d 	c #908F83",
"e 	c #88887C",
"f 	c #868578",
"g 	c #7F7F71",
"h 	c #CAC5BB",
"i 	c #949387",
"j 	c #9B9A8F",
"k 	c #929285",
"l 	c #8E8E81",
"m 	c #89897D",
"n 	c #838277",
"o 	c #818173",
"p 	c #7E7D70",
"q 	c #7C7C6E",
"r 	c #C9C5BA",
"s 	c #8E8D80",
"t 	c #949488",
"u 	c #8D8C80",
"v 	c #8B8A7E",
"w 	c #87867B",
"x 	c #848377",
"y 	c #7F7E71",
"z 	c #7C7C6F",
"A 	c #7A7A6D",
"B 	c #7A796D",
"C 	c #C8C4BA",
"D 	c #858478",
"E 	c #8E8D81",
"F 	c #868579",
"G 	c #838276",
"H 	c #807F73",
"I 	c #7C7C70",
"J 	c #78786C",
"K 	c #77766B",
"L 	c #77766A",
"M 	c #807F72",
"N 	c #7D7D70",
"O 	c #7C7B6F",
"P 	c #79796D",
"Q 	c #757469",
"R 	c #747469",
"S 	c #C7C3B9",
"T 	c #7D7D6F",
"U 	c #7B7B6D",
"V 	c #7B7A6D",
"W 	c #79786C",
"X 	c #76756A",
"Y 	c #747369",
"Z 	c #737268",
"` 	c #717167",
" .	c #C6C2B9",
"..	c #79796C",
"+.	c #828275",
"@.	c #727267",
"#.	c #717166",
"$.	c #707066",
"%.	c #C6C2B8",
"&.	c #7A796C",
"*.	c #828175",
"=.	c #79786B",
"-.	c #737368",
";.	c #706F66",
">.	c #6F6E66",
",.	c #6E6E65",
"'.	c #C5C1B8",
").	c #818174",
"!.	c #78786B",
"~.	c #717066",
"{.	c #6D6D64",
"].	c #6C6B63",
"^.	c #C2BEB4",
"                                ",
"      . + . @ # $ % & * = -     ",
"      ; > ; , ' ) ! ~ { ] ^     ",
"      / . / ( _ : < [ } ] |     ",
"      1 2 1 3 4 5 6 7 8 9 0     ",
"      a b a : c d e f 9 g h     ",
"      i j i k l m n o p q r     ",
"      s t u v w x y z A B C     ",
"      D E F G H I B J K L C     ",
"      M e y N O P L Q R R S     ",
"      T x U V W X Y Z ` `  .    ",
"      ..+.A ..L R @.#.$.$.%.    ",
"      &.*.&.=.X -.#.;.>.,.'.    ",
"      B ).B !.X Z ~.>.{.].^.    ",
"        C C C C C C C C C C     ",
"                                "};
