/* XPM */
static char * booktree_xpm[] = {
"22 22 132 2",
"  	c None",
". 	c #3995E5",
"+ 	c #449DE8",
"@ 	c #4BA0EA",
"# 	c #479BE7",
"$ 	c #4395E5",
"% 	c #3F8FE2",
"& 	c #3A89E0",
"* 	c #3683DD",
"= 	c #327DDB",
"- 	c #2D77D8",
"; 	c #2971D6",
"> 	c #246BD3",
", 	c #2065D1",
"' 	c #1B5FCE",
") 	c #1253C9",
"! 	c #0E4DC7",
"~ 	c #0A47C4",
"{ 	c #0742C2",
"] 	c #053FBF",
"^ 	c #0238B2",
"/ 	c #0032A4",
"( 	c #8BCFFF",
"_ 	c #84C9FF",
": 	c #7DC1FF",
"< 	c #75BAFF",
"[ 	c #6DB2FF",
"} 	c #65AAFF",
"| 	c #5DA1FF",
"1 	c #5499FF",
"2 	c #4B90FF",
"3 	c #4287FF",
"4 	c #397FFF",
"5 	c #3076FF",
"6 	c #276DFF",
"7 	c #155BFF",
"8 	c #0C52FF",
"9 	c #044AFF",
"0 	c #0349FF",
"a 	c #0340F1",
"b 	c #0032AB",
"c 	c #4DA3EC",
"d 	c #84C8FF",
"e 	c #7EC2FF",
"f 	c #77BBFF",
"g 	c #70B4FF",
"h 	c #68ADFF",
"i 	c #60A5FF",
"j 	c #589DFF",
"k 	c #5095FF",
"l 	c #488DFF",
"m 	c #3F84FF",
"n 	c #367BFF",
"o 	c #2D73FF",
"p 	c #246AFF",
"q 	c #1358FF",
"r 	c #0A4FFF",
"s 	c #0343F6",
"t 	c #0132B1",
"u 	c #5BA8EB",
"v 	c #BFE1FF",
"w 	c #BCDEFF",
"x 	c #B9DBFF",
"y 	c #B5D7FF",
"z 	c #B1D4FF",
"A 	c #AED0FF",
"B 	c #AACCFF",
"C 	c #A6C8FF",
"D 	c #A2C4FF",
"E 	c #9DC0FF",
"F 	c #99BCFF",
"G 	c #95B8FF",
"H 	c #90B3FF",
"I 	c #87AAFF",
"J 	c #82A5FE",
"K 	c #7FA2FE",
"L 	c #7EA1FD",
"M 	c #7DA0FD",
"N 	c #7A9AF5",
"O 	c #1D48B3",
"P 	c #6AAFEB",
"Q 	c #FFFFFF",
"R 	c #7DA7D9",
"S 	c #C9DFF4",
"T 	c #FDFDFE",
"U 	c #FBFBFC",
"V 	c #F9F9FB",
"W 	c #F7F7FA",
"X 	c #F6F6F9",
"Y 	c #F0EFF4",
"Z 	c #385EB5",
"` 	c #69AEEA",
" .	c #FEFEFF",
"..	c #F4F4F8",
"+.	c #EEEDF3",
"@.	c #385DB4",
"#.	c #69ACE9",
"$.	c #F2F2F7",
"%.	c #ECEBF2",
"&.	c #365BB1",
"*.	c #68AAE8",
"=.	c #0072BC",
"-.	c #67A9E7",
";.	c #F1FAFF",
">.	c #DAF1FF",
",.	c #66A7E6",
"'.	c #9A9A9A",
").	c #65A6E5",
"!.	c #F7941D",
"~.	c #64A5E4",
"{.	c #63A3E3",
"].	c #62A2E2",
"^.	c #62A0E1",
"/.	c #FBFBFD",
"(.	c #619FE1",
"_.	c #FAFAFC",
":.	c #609DDF",
"<.	c #F8F8FB",
"[.	c #5E9ADE",
"}.	c #FAFAFB",
"|.	c #F9F9FA",
"1.	c #F7F6F9",
"2.	c #F5F4F7",
"3.	c #F2F2F6",
"4.	c #F1F0F5",
"5.	c #357FD4",
"6.	c #5791D7",
"7.	c #548CD4",
"8.	c #5188D1",
"9.	c #4E83CE",
"0.	c #4B7ECA",
"a.	c #487AC7",
"                                            ",
". + @ # $ % & * = - ; > , ' ) ! ~ { ] ^ /   ",
"+ ( _ : < [ } | 1 2 3 4 5 6 7 8 9 0 0 a b   ",
"c d e f g h i j k l m n o p q r 0 0 0 s t   ",
"u v w x y z A B C D E F G H I J K L M N O   ",
"P Q Q Q Q Q Q Q Q Q R S Q Q T U V W X Y Z   ",
"` Q Q Q Q Q Q Q Q Q R S Q  .U V W X ..+.@.  ",
"#.Q Q Q Q Q Q Q Q Q R S  .T V W X ..$.%.&.  ",
"*.Q Q Q Q Q Q R R R R R R R R R R R R R R =.",
"-.Q Q Q Q Q Q R ;.;.;.;.;.;.;.;.;.;.;.;.>.=.",
",.Q Q Q Q Q Q R ;.Q '.Q Q Q Q Q Q Q Q Q >.=.",
").Q Q Q Q Q Q R ;.Q '.Q Q Q !.!.!.!.Q Q >.=.",
"~.Q Q Q Q Q Q R ;.Q '.Q Q Q !.!.!.!.Q Q >.=.",
"{.Q Q Q Q Q Q R ;.Q '.'.'.Q !.!.!.!.Q Q >.=.",
"].Q Q Q Q Q T R ;.Q '.Q Q Q !.!.!.!.Q Q >.=.",
"^.Q Q Q Q T /.R ;.Q '.Q Q Q Q Q Q Q Q Q >.=.",
"(.Q Q Q T /._.R ;.Q '.Q Q Q !.!.!.!.Q Q >.=.",
":.Q Q T /._.<.R ;.Q '.Q Q Q !.!.!.!.Q Q >.=.",
"[.}.|.1.2.3.4.R ;.Q '.'.'.Q !.!.!.!.Q Q >.=.",
"5.6.7.8.9.0.a.R ;.Q Q Q Q Q !.!.!.!.Q Q >.=.",
"              R >.>.>.>.>.>.>.>.>.>.>.>.>.=.",
"              =.=.=.=.=.=.=.=.=.=.=.=.=.=.=."};
