/* XPM */
static char * commentary_xpm[] = {
"16 16 94 2",
"  	c None",
". 	c #AFAEA5",
"+ 	c #ADADA6",
"@ 	c #ADACA2",
"# 	c #A7A79C",
"$ 	c #A0A094",
"% 	c #98988C",
"& 	c #919184",
"* 	c #89887B",
"= 	c #7F7E72",
"- 	c #BAB7AE",
"; 	c #000000",
"> 	c #63635C",
", 	c #97968A",
"' 	c #908F82",
") 	c #89897B",
"! 	c #848375",
"~ 	c #BAB7AC",
"{ 	c #1A1A1A",
"] 	c #FFFFFF",
"^ 	c #FEFEFE",
"/ 	c #404040",
"( 	c #5C5B53",
"_ 	c #8D8C7F",
": 	c #888779",
"< 	c #C2BEB3",
"[ 	c #010101",
"} 	c #8A897C",
"| 	c #858577",
"1 	c #828173",
"2 	c #C6C2B7",
"3 	c #868578",
"4 	c #7F7F71",
"5 	c #CAC5BB",
"6 	c #080808",
"7 	c #818173",
"8 	c #7E7D70",
"9 	c #7C7C6E",
"0 	c #C9C5BA",
"a 	c #F1F1EF",
"b 	c #363630",
"c 	c #7C7C6F",
"d 	c #7A7A6D",
"e 	c #7A796D",
"f 	c #C8C4BA",
"g 	c #818181",
"h 	c #E0E0E0",
"i 	c #5A5A5A",
"j 	c #1F1F1F",
"k 	c #3C3C38",
"l 	c #54534B",
"m 	c #78786C",
"n 	c #77766B",
"o 	c #77766A",
"p 	c #DBDBDB",
"q 	c #FEFEFD",
"r 	c #696969",
"s 	c #5B5B52",
"t 	c #79786C",
"u 	c #79796D",
"v 	c #757469",
"w 	c #747469",
"x 	c #C7C3B9",
"y 	c #222222",
"z 	c #FDFDFD",
"A 	c #4D4D4D",
"B 	c #65655C",
"C 	c #7B7A6D",
"D 	c #76756A",
"E 	c #747369",
"F 	c #737268",
"G 	c #717167",
"H 	c #C6C2B9",
"I 	c #060606",
"J 	c #5C5C53",
"K 	c #79796C",
"L 	c #727267",
"M 	c #717166",
"N 	c #707066",
"O 	c #C6C2B8",
"P 	c #7A796C",
"Q 	c #828175",
"R 	c #79786B",
"S 	c #737368",
"T 	c #706F66",
"U 	c #6F6E66",
"V 	c #6E6E65",
"W 	c #C5C1B8",
"X 	c #818174",
"Y 	c #78786B",
"Z 	c #717066",
"` 	c #6D6D64",
" .	c #6C6B63",
"..	c #C2BEB4",
"                                ",
"      . + . @ # $ % & * = -     ",
"    ; ; ; ; ; ; > , ' ) ! ~     ",
"  { ] ^ ^ ^ ^ ^ / ( _ : ! <     ",
"; ] ] ^ ^ ^ ^ ^ ^ [ } | 1 2     ",
"; ] ] ^ ^ ^ ^ ^ ^ ; 3 1 4 5     ",
"; ] ] ^ ^ ^ ^ ^ ^ 6 7 8 9 0     ",
"; ] ] ^ ^ ^ ^ ^ a b c d e f     ",
"  ; [ g h ^ i j k l m n o f     ",
"      p q r s t u o v w w x     ",
"    y z A B C t D E F G G H     ",
"    ; I J d K o w L M N N O     ",
"      P Q P R D S M T U V W     ",
"      e X e Y D F Z U `  ...    ",
"        f f f f f f f f f f     ",
"                                "};
