/* XPM */
static char * devotional_xpm[] = {
"16 16 63 1",
" 	c None",
".	c #AFAEA5",
"+	c #ADADA6",
"@	c #ADACA2",
"#	c #A7A79C",
"$	c #A0A094",
"%	c #98988C",
"&	c #919184",
"*	c #89887B",
"=	c #7F7E72",
"-	c #BAB7AE",
";	c #000000",
">	c #908F82",
",	c #89897B",
"'	c #848375",
")	c #BAB7AC",
"!	c #FEFEFE",
"~	c #8D8C7F",
"{	c #888779",
"]	c #C2BEB3",
"^	c #63635C",
"/	c #8A897C",
"(	c #858577",
"_	c #828173",
":	c #C6C2B7",
"<	c #868578",
"[	c #7F7F71",
"}	c #CAC5BB",
"|	c #818173",
"1	c #7E7D70",
"2	c #7C7C6E",
"3	c #C9C5BA",
"4	c #7C7C6F",
"5	c #7A7A6D",
"6	c #7A796D",
"7	c #C8C4BA",
"8	c #78786C",
"9	c #77766B",
"0	c #77766A",
"a	c #757469",
"b	c #747469",
"c	c #C7C3B9",
"d	c #737268",
"e	c #717167",
"f	c #C6C2B9",
"g	c #717166",
"h	c #707066",
"i	c #C6C2B8",
"j	c #7A796C",
"k	c #828175",
"l	c #79786B",
"m	c #76756A",
"n	c #737368",
"o	c #706F66",
"p	c #6F6E66",
"q	c #6E6E65",
"r	c #C5C1B8",
"s	c #818174",
"t	c #78786B",
"u	c #717066",
"v	c #6D6D64",
"w	c #6C6B63",
"x	c #C2BEB4",
"                ",
"   .+.@#$%&*=-  ",
";;;;;;;;;;>,')  ",
";!!!!!!!!;~{']  ",
";^^^^^^^^;/(_:  ",
";!!!!!!!!;<_[}  ",
";!^!^!^!^;|123  ",
";!!!!!!!!;4567  ",
";!^!^!^!^;8907  ",
";!!!!!!!!;abbc  ",
";!^!^!^!^;deef  ",
";;;;;;;;;;ghhi  ",
"   jkjlmngopqr  ",
"   6s6tmdupvwx  ",
"    7777777777  ",
"                "};
