/* XPM */
static char * forward_xpm[] = {
"24 24 148 2",
"  	c None",
". 	c #0E3A56",
"+ 	c #0E3652",
"@ 	c #0E3E5E",
"# 	c #1E4662",
"$ 	c #123A56",
"% 	c #12425E",
"& 	c #365676",
"* 	c #3A5E7E",
"= 	c #26567A",
"- 	c #124262",
"; 	c #769AB6",
"> 	c #6E96B2",
", 	c #1A425E",
"' 	c #9EBACE",
") 	c #D2E2F2",
"! 	c #7296B2",
"~ 	c #1E4A66",
"{ 	c #0A3E5E",
"] 	c #0E5A7A",
"^ 	c #DEEAF6",
"/ 	c #D6DEEA",
"( 	c #6E8AA6",
"_ 	c #2A526E",
": 	c #0E2E46",
"< 	c #167EA6",
"[ 	c #7EAEC6",
"} 	c #B2DEEA",
"| 	c #FEFEFE",
"1 	c #D2DEEA",
"2 	c #0A8EB2",
"3 	c #26AACA",
"4 	c #56AAC6",
"5 	c #7ACEE2",
"6 	c #DEEEF2",
"7 	c #6E8EAA",
"8 	c #5296B6",
"9 	c #DAF6FE",
"0 	c #FAFAFE",
"a 	c #E6F6FA",
"b 	c #AEDEEA",
"c 	c #72BAD2",
"d 	c #369EC2",
"e 	c #3ABAD2",
"f 	c #8EDAE6",
"g 	c #DAF2F6",
"h 	c #FAF6FA",
"i 	c #DEE2EA",
"j 	c #92D2E6",
"k 	c #C2EEF6",
"l 	c #DEF6FE",
"m 	c #D6F2FA",
"n 	c #B6E6F6",
"o 	c #76CAE2",
"p 	c #32AECA",
"q 	c #1AA2C6",
"r 	c #16A6C6",
"s 	c #12AACA",
"t 	c #42C6D6",
"u 	c #F2F6FA",
"v 	c #CEDEEE",
"w 	c #6E8EA6",
"x 	c #2A5272",
"y 	c #328AAE",
"z 	c #5EB6D2",
"A 	c #8ED2E6",
"B 	c #B2E2EE",
"C 	c #BAE6EE",
"D 	c #AADEEA",
"E 	c #4EBED6",
"F 	c #0E9AC2",
"G 	c #0A9EC2",
"H 	c #12AECE",
"I 	c #4EC6DA",
"J 	c #82D2E6",
"K 	c #D2EEFA",
"L 	c #A6C6DA",
"M 	c #527A9A",
"N 	c #020202",
"O 	c #1E82A6",
"P 	c #42A6CA",
"Q 	c #6ABAD6",
"R 	c #82CADE",
"S 	c #72C2D6",
"T 	c #3AB2CE",
"U 	c #0E9ABE",
"V 	c #0E96BE",
"W 	c #12A2CA",
"X 	c #1AB6D6",
"Y 	c #26CAE2",
"Z 	c #32CEDE",
"` 	c #2AB6CE",
" .	c #2692B6",
"..	c #125676",
"+.	c #1696BA",
"@.	c #1A92B2",
"#.	c #1A96B6",
"$.	c #168EB2",
"%.	c #1292B2",
"&.	c #0EA2C6",
"*.	c #12AED2",
"=.	c #22CADE",
"-.	c #22CEE2",
";.	c #12B6D2",
">.	c #06526E",
",.	c #062636",
"'.	c #128EB2",
").	c #16BAD6",
"!.	c #16B2CA",
"~.	c #22BACE",
"{.	c #2EBAD2",
"].	c #2EBECE",
"^.	c #32C2D2",
"/.	c #2ABED6",
"(.	c #16B2CE",
"_.	c #36D6E2",
":.	c #2ABECE",
"<.	c #0E8AB2",
"[.	c #0E5672",
"}.	c #0A2236",
"|.	c #0E5272",
"1.	c #0E5E82",
"2.	c #12668E",
"3.	c #126A92",
"4.	c #126686",
"5.	c #127A9E",
"6.	c #1296B6",
"7.	c #4ADEEA",
"8.	c #2AC6DA",
"9.	c #061626",
"0.	c #0A223A",
"a.	c #0A2A3E",
"b.	c #0A3652",
"c.	c #0E567A",
"d.	c #0E7296",
"e.	c #26B6CA",
"f.	c #36DAE6",
"g.	c #061E2E",
"h.	c #0E5E7E",
"i.	c #229AB6",
"j.	c #12567A",
"k.	c #0E769E",
"l.	c #061E32",
"m.	c #0E4E6E",
"n.	c #061A2A",
"o.	c #0E4A6E",
"p.	c #0A364E",
"q.	c #060E1A",
"                      .                         ",
"                      . +                       ",
"                      @ # $                     ",
"                      % & * =                   ",
"                      - * ; > ,                 ",
"                      @ = ' ) ! ~               ",
"                      { ] ' ^ / ( _             ",
"    : : : : : : : : : : < [ } | 1 ( #           ",
"    : 2 2 2 2 2 2 2 2 2 3 4 5 6 | / 7 ,         ",
"    : 8 9 0 | 0 a b c d 3 e e f g h i ! _       ",
"    : 8 j k 9 l m n o p q r s t j ^ u v w x     ",
"    : y z A B C D 5 E r F G G H I J D K L M N   ",
"    : O P Q R R S T q U V V U W X Y Z `  ...N   ",
"    : < +.@.#.@.$.%.%.V %.W &.*.=.-.;.2 >.,.    ",
"    : '.).!.~.{.].^./.(.*.*.X -._.:.<.[.}.      ",
"    : |.1.2.3.3.3.4.5.6.%.s -.7.8.U ] 9.        ",
"    : 0.a.a.,.,.a.0.b.c.d.e.f.e.@.[.g.          ",
"                      { h.i.` $.|.,.            ",
"                      @ j.d.k.] l.              ",
"                      - m.3.] n.                ",
"                      @ o.{ ,.                  ",
"                      { p.9.                    ",
"                      . q.                      ",
"                      9.                        "};
