/* XPM */
static char * lexicon_xpm[] = {
"16 16 109 2",
"  	c None",
". 	c #AFAEA5",
"+ 	c #ADADA6",
"@ 	c #ADACA2",
"# 	c #A7A79C",
"$ 	c #A0A094",
"% 	c #98988C",
"& 	c #919184",
"* 	c #89887B",
"= 	c #7F7E72",
"- 	c #BAB7AE",
"; 	c #2A3A36",
"> 	c #93958E",
", 	c #ADACA3",
"' 	c #AAAAA0",
") 	c #A5A59A",
"! 	c #9E9E92",
"~ 	c #97968A",
"{ 	c #908F82",
"] 	c #89897B",
"^ 	c #848375",
"/ 	c #BAB7AC",
"( 	c #273632",
"_ 	c #A4A399",
": 	c #44504B",
"< 	c #8B8E85",
"[ 	c #A1A196",
"} 	c #9B9A8E",
"| 	c #949386",
"1 	c #8D8C7F",
"2 	c #888779",
"3 	c #C2BEB3",
"4 	c #A4A499",
"5 	c #AAA9A0",
"6 	c #9C9B8F",
"7 	c #969589",
"8 	c #8A897C",
"9 	c #858577",
"0 	c #828173",
"a 	c #C6C2B7",
"b 	c #9C9C90",
"c 	c #A3A298",
"d 	c #959488",
"e 	c #908F83",
"f 	c #8A8A7D",
"g 	c #868578",
"h 	c #7F7F71",
"i 	c #CAC5BB",
"j 	c #949387",
"k 	c #9B9A8F",
"l 	c #8E8E81",
"m 	c #89897C",
"n 	c #858478",
"o 	c #818173",
"p 	c #7E7D70",
"q 	c #7C7C6E",
"r 	c #C9C5BA",
"s 	c #273633",
"t 	c #1D2826",
"u 	c #7A7C72",
"v 	c #36423D",
"w 	c #6D6E64",
"x 	c #87867A",
"y 	c #848376",
"z 	c #807F72",
"A 	c #7C7C6F",
"B 	c #7A7A6D",
"C 	c #7A796D",
"D 	c #C8C4BA",
"E 	c #2D3C38",
"F 	c #61675E",
"G 	c #818074",
"H 	c #7D7D71",
"I 	c #7B7A6E",
"J 	c #78786C",
"K 	c #77766B",
"L 	c #77766A",
"M 	c #7C7B6F",
"N 	c #79796D",
"O 	c #757469",
"P 	c #747469",
"Q 	c #C7C3B9",
"R 	c #7B7A6D",
"S 	c #79786C",
"T 	c #76756A",
"U 	c #747369",
"V 	c #737268",
"W 	c #717167",
"X 	c #C6C2B9",
"Y 	c #838376",
"Z 	c #79796C",
"` 	c #727267",
" .	c #717166",
"..	c #707066",
"+.	c #C6C2B8",
"@.	c #7A796C",
"#.	c #828175",
"$.	c #79786B",
"%.	c #737368",
"&.	c #706F66",
"*.	c #6F6E66",
"=.	c #6E6E65",
"-.	c #C5C1B8",
";.	c #818174",
">.	c #78786B",
",.	c #717066",
"'.	c #6D6D64",
").	c #6C6B63",
"!.	c #C2BEB4",
"                                ",
"      . + . @ # $ % & * = -     ",
"      ; > , ' ) ! ~ { ] ^ /     ",
"  ( ; _ : ; < [ } | 1 2 ^ 3     ",
";     4 5 4 ; 6 7 { 8 9 0 a     ",
";     b c b ; d e f g 0 h i     ",
";     j k j ; l m n o p q r     ",
"  s t 1 u v w x y z A B C D     ",
"    ; g E g F G H I J K L D     ",
"; ; ; z ; ; ; M N L O P P Q     ",
"      q n q R S T U V W W X     ",
"      B Y B Z L P `  .....+.    ",
"      @.#.@.$.T %. .&.*.=.-.    ",
"      C ;.C >.T V ,.*.'.).!.    ",
"        D D D D D D D D D D     ",
"                                "};
