/* XPM */
static char * list_xpm[] = {
"22 22 114 2",
"  	c None",
". 	c #7F7F7F",
"+ 	c #F5FBF8",
"@ 	c #787878",
"# 	c #F4F7F2",
"$ 	c #1A506D",
"% 	c #1B618F",
"& 	c #1B6391",
"* 	c #1B6694",
"= 	c #1B6896",
"- 	c #1B6B97",
"; 	c #1C6D9A",
"> 	c #1C709C",
", 	c #1C729E",
"' 	c #1C749F",
") 	c #1C77A1",
"! 	c #1D79A4",
"~ 	c #1D7CA6",
"{ 	c #1D7EA7",
"] 	c #1D81AA",
"^ 	c #1A718C",
"/ 	c #727272",
"( 	c #F2F4EC",
"_ 	c #1B5F8E",
": 	c #1D83AC",
"< 	c #6B6C6C",
"[ 	c #F1F0E6",
"} 	c #656565",
"| 	c #F0EDE0",
"1 	c #C2D9E5",
"2 	c #609AB7",
"3 	c #E5E2D6",
"4 	c #EEEBDE",
"5 	c #5F5F5F",
"6 	c #EEE9DA",
"7 	c #BBD4E0",
"8 	c #CFD8DD",
"9 	c #598BA6",
"0 	c #013D58",
"a 	c #DBD6C8",
"b 	c #ECE7D8",
"c 	c #000000",
"d 	c #E3DED0",
"e 	c #585959",
"f 	c #EDE6D4",
"g 	c #5D9BBA",
"h 	c #0F5981",
"i 	c #001D2A",
"j 	c #B7B1A3",
"k 	c #E2DCCA",
"l 	c #B1AC9E",
"m 	c #C1BBAC",
"n 	c #E4DDCC",
"o 	c #525353",
"p 	c #ECE2CE",
"q 	c #E1D8C5",
"r 	c #003953",
"s 	c #001D29",
"t 	c #A39C8E",
"u 	c #B6AE9F",
"v 	c #E3DAC6",
"w 	c #C0B8A8",
"x 	c #B0A99A",
"y 	c #ADA697",
"z 	c #D9D0BD",
"A 	c #EAE0CC",
"B 	c #4C4C4C",
"C 	c #EADEC8",
"D 	c #E8DCC6",
"E 	c #D7CCB8",
"F 	c #B4AB9A",
"G 	c #DFD4BF",
"H 	c #DED2BD",
"I 	c #454646",
"J 	c #E9DBC2",
"K 	c #E7D9C0",
"L 	c #DED1B9",
"M 	c #3F4040",
"N 	c #E7D7BC",
"O 	c #DDCDB3",
"P 	c #E5D5BA",
"Q 	c #393939",
"R 	c #E6D4B6",
"S 	c #D3C3A7",
"T 	c #E4D2B4",
"U 	c #DCCAAE",
"V 	c #323333",
"W 	c #E5D0B0",
"X 	c #B0A087",
"Y 	c #DBC7A8",
"Z 	c #AB9B83",
"` 	c #BAA98F",
" .	c #DCC8A9",
"..	c #2C2D2D",
"+.	c #E3CDAA",
"@.	c #D9C4A2",
"#.	c #9D8E76",
"$.	c #AF9E83",
"%.	c #DAC5A4",
"&.	c #B9A78A",
"*.	c #AA997F",
"=.	c #A7977D",
"-.	c #D1BC9C",
";.	c #E1CBA8",
">.	c #252727",
",.	c #E1C69E",
"'.	c #DFC49C",
").	c #CFB691",
"!.	c #AD987A",
"~.	c #D7BD97",
"{.	c #D5BB95",
"].	c #272828",
"^.	c #262727",
"/.	c #252626",
"                                            ",
"                                            ",
"                                            ",
"    . . . . . . . . . . . . . . . . . .     ",
"  . + + + + + + + + + + + + + + + + + + .   ",
"  @ # $ % & * = - ; > , ' ) ! ~ { ] ^ # @   ",
"  / ( _ % & * = - ; > , ' ) ! ~ { ] : ( /   ",
"  < [ [ [ [ [ [ [ [ [ [ [ [ [ [ [ [ [ [ <   ",
"  } | | | 1 2 3 4 | | | | | | | | | | | }   ",
"  5 6 6 7 8 9 0 a b 6 c c c c c c c d b 5   ",
"  e f f g 9 h i j k c c c c c c c l m n e   ",
"  o p p q r s t u q v w x y y y y u z A o   ",
"  B C C D E F F E D D G H H H H H G D C B   ",
"  I J J J K L L K J J J J J J J J J J J I   ",
"  M N N N 1 2 O P N N N N N N N N N N N M   ",
"  Q R R 7 8 9 0 S T R c c c c c c c U T Q   ",
"  V W W g 9 h i X Y c c c c c c c Z `  .V   ",
"  ..+.+.@.r s #.$.@.%.&.*.=.=.=.=.$.-.;...  ",
"  >.,.,.'.).!.!.).'.'.~.{.{.{.{.{.~.'.,.>.  ",
"    ].].].^././.^.].].].].].].].].].].].    ",
"                                            ",
"                                            "};
