/* XPM */
static char * lookup_xpm[] = {
"24 24 131 2",
"  	c None",
". 	c #FFFFFF",
"+ 	c #A6A6A6",
"@ 	c #B9B9B9",
"# 	c #F9F9F9",
"$ 	c #EEEEFF",
"% 	c #F7F7FF",
"& 	c #E6E6FF",
"* 	c #CDCDFF",
"= 	c #E9E9FF",
"- 	c #FDFDFF",
"; 	c #DEDEFF",
"> 	c #D8D8FF",
", 	c #E2E2FF",
"' 	c #949494",
") 	c #C6C6C6",
"! 	c #D9D9D9",
"~ 	c #B1B1B1",
"{ 	c #ADADAD",
"] 	c #B0B0B0",
"^ 	c #D1D1FF",
"/ 	c #B7B7FF",
"( 	c #B0B0FF",
"_ 	c #9898FF",
": 	c #B8B8FF",
"< 	c #8282FF",
"[ 	c #B2B2FF",
"} 	c #E3E3FF",
"| 	c #AAAAFF",
"1 	c #9797FF",
"2 	c #B5B5FF",
"3 	c #C4C4C4",
"4 	c #EAEAEA",
"5 	c #8D8D8D",
"6 	c #E8E8E8",
"7 	c #D9D9FF",
"8 	c #C4C4FF",
"9 	c #CCCCFF",
"0 	c #C0C0FF",
"a 	c #BDBDFF",
"b 	c #DDDDFF",
"c 	c #ECECFF",
"d 	c #C8C8FF",
"e 	c #DADAFF",
"f 	c #ECECEC",
"g 	c #FBFBFB",
"h 	c #C8C8C8",
"i 	c #EFEFEF",
"j 	c #FDFDFD",
"k 	c #ABABAB",
"l 	c #CDCDCD",
"m 	c #C1C1C1",
"n 	c #E9E9E9",
"o 	c #D5D5D5",
"p 	c #F2F2F2",
"q 	c #BEBEBE",
"r 	c #F7F7F7",
"s 	c #D1D1D1",
"t 	c #EDEDED",
"u 	c #D7D7D7",
"v 	c #E0E0E0",
"w 	c #F3F3F3",
"x 	c #DEDEDE",
"y 	c #E6E6E6",
"z 	c #9A9A9A",
"A 	c #BABABA",
"B 	c #B6B6B6",
"C 	c #BCBCBC",
"D 	c #D0D0D0",
"E 	c #CBCBCB",
"F 	c #B7B7B7",
"G 	c #B2B2B2",
"H 	c #B8B8B8",
"I 	c #B4B4B4",
"J 	c #BBBBBB",
"K 	c #A2A2A2",
"L 	c #BDBDBD",
"M 	c #A1A1A1",
"N 	c #A5A5A5",
"O 	c #AEAEAE",
"P 	c #C0C0C0",
"Q 	c #AAAAAA",
"R 	c #B3B3B3",
"S 	c #E1E1E1",
"T 	c #CCCCCC",
"U 	c #8B8B8B",
"V 	c #DFDFDF",
"W 	c #878787",
"X 	c #959595",
"Y 	c #A8A8A8",
"Z 	c #E7E7E7",
"` 	c #F5F5F5",
" .	c #DBDBDB",
"..	c #C9C9C9",
"+.	c #A0A0A0",
"@.	c #C7C7C7",
"#.	c #979797",
"$.	c #D8D8D8",
"%.	c #AFAFAF",
"&.	c #EBEBEB",
"*.	c #D2D2D2",
"=.	c #ACACAC",
"-.	c #E5E5E5",
";.	c #9B9B9B",
">.	c #F4F4F4",
",.	c #F6F6F6",
"'.	c #CECECE",
").	c #DCDCDC",
"!.	c #C5C5C5",
"~.	c #C3C3C3",
"{.	c #838383",
"].	c #828282",
"^.	c #A7A7A7",
"/.	c #868686",
"(.	c #A9A9A9",
"_.	c #9C9C9C",
":.	c #A3A3A3",
"<.	c #909090",
"[.	c #F1F1F1",
"}.	c #CFCFCF",
"|.	c #E4E4E4",
"1.	c #939393",
"2.	c #FAFAFA",
"3.	c #FEFEFE",
"4.	c #DADADA",
"5.	c #E2E2E2",
"6.	c #EEEEEE",
"7.	c #989898",
"8.	c #999999",
"9.	c #D3D3D3",
"0.	c #B5B5B5",
". . . . . . . . . . . . . . + @ # . . . . . . . ",
"$ % . & . . . * = - ; > , . ' ) ! ~ { ] . . . . ",
"^ / ( _ : < . ^ [ } | 1 2 . @ . 3 4 5 6 . . . . ",
"| 7 8 7 9 0 . a b c 7 d e . f . g h i # . . . . ",
"# 6 # . . . g j . . . . . . # . . . . . . . # . ",
"k l m n o p + 6 # q r s t . @ u v w f x 6 y z . ",
"@ y { A B C @ 6 o k D E F . @ @ G H I ' + J K . ",
"~ B ~ L M m ' 4 f N C O A . P Q R F S G T I U . ",
". . . . . . . . . . . . . . . . . . . . . . . . ",
"f V . . . . . . . . . . . V . V . f V . . . # p ",
"W X Y Z A ` u  .D ..F ! +.I @.5 . ' #.O $.R %.k ",
"@ F @ ~ R &.*.+.=.#.-.@ F @ A ~ . @ H Z F F ;.s ",
"m *.! 4 F >.,.E '.t J ).! ! h %.. '.!.p D G h ~.",
". . . . . . . . . . . . . . . . . . . . . . . . ",
") . ) . . . . . . . . . . . . ! f ) f . . . . . ",
"z @ { U Q . J {.o ].^.*.Y /.-.s (.W @ _.(.. . . ",
"@ . @ :.*.. L z R <.s <.P ~.[.s 6 @ @ }.5 . . . ",
"p . p |.[.. F 1.[. .g >.2. .3.r g p p i 4.. . . ",
". . . . p . . . p . . . . . . . . g g . . . . . ",
"5.'.4.q I y 6.r @ ) >.'.t u T 5.'.7.U V !.&.P -.",
"A F O E K R @ C { n %.8.@ L (.A F @ @ L =.^.! F ",
"~.^.) ! R $.k . ) ] 9.I ! J 1.~.^.J O 3 0...f ) ",
". . . . . 9.6.. . . . . . @ T . . . . . . . . . ",
"! C t . . . . . . y ! . . . . y . . . . . . . . "};
