/* XPM */
static char * lookup_xpm[] = {
"24 24 185 2",
"  	c None",
". 	c #6B6B6B",
"+ 	c #6D6D6D",
"@ 	c #6F6F6F",
"# 	c #717171",
"$ 	c #737373",
"% 	c #646465",
"& 	c #6E6E6F",
"* 	c #9CA2A3",
"= 	c #CCD7D9",
"- 	c #E1EEF1",
"; 	c #CAD7D8",
"> 	c #9BA3A4",
", 	c #747576",
"' 	c #747475",
") 	c #5F5F60",
"! 	c #8D9192",
"~ 	c #E4EFF1",
"{ 	c #DFF1F4",
"] 	c #DDF2F7",
"^ 	c #DAF3F9",
"/ 	c #D4F0F7",
"( 	c #D5EFF5",
"_ 	c #DCEFF3",
": 	c #8E9495",
"< 	c #747474",
"[ 	c #5B5B5B",
"} 	c #8B8F90",
"| 	c #E6F3F5",
"1 	c #F8FCFC",
"2 	c #EEF9FB",
"3 	c #D4F1F7",
"4 	c #C3EBF3",
"5 	c #B5E3EE",
"6 	c #A6DCE8",
"7 	c #ACDDE7",
"8 	c #CCEAEF",
"9 	c #8B9294",
"0 	c #636464",
"a 	c #E4F2F4",
"b 	c #FFFFFF",
"c 	c #FCFEFE",
"d 	c #EBF9FB",
"e 	c #C9ECF2",
"f 	c #AADFEA",
"g 	c #98D6E2",
"h 	c #8ECFDA",
"i 	c #99D4DE",
"j 	c #CAE8ED",
"k 	c #707272",
"l 	c #535353",
"m 	c #959B9C",
"n 	c #EBF7FA",
"o 	c #F3FBFC",
"p 	c #DAF2F6",
"q 	c #BCE6EF",
"r 	c #A5DDE9",
"s 	c #93D4E2",
"t 	c #82C9D8",
"u 	c #7AC2D1",
"v 	c #A4D6E1",
"w 	c #919C9E",
"x 	c #505050",
"y 	c #C8D4D6",
"z 	c #D2ECF3",
"A 	c #D4EDF4",
"B 	c #ECF8FA",
"C 	c #C0E8F0",
"D 	c #97D8E6",
"E 	c #85CFE0",
"F 	c #6EC0D3",
"G 	c #60B0C2",
"H 	c #82C3CF",
"I 	c #BBD2D4",
"J 	c #6C6C6C",
"K 	c #4D4D4E",
"L 	c #DFEEF0",
"M 	c #C9E8EF",
"N 	c #C3E8F0",
"O 	c #C9EBF2",
"P 	c #BAE7EF",
"Q 	c #A8DFEB",
"R 	c #86D1E1",
"S 	c #73C5D9",
"T 	c #5CB2C5",
"U 	c #4EA2B2",
"V 	c #6BB7C4",
"W 	c #CEE9ED",
"X 	c #696969",
"Y 	c #4A4A4B",
"Z 	c #C5D2D5",
"` 	c #C1E3EA",
" .	c #AFE0E9",
"..	c #A7DEE9",
"+.	c #A2DCE9",
"@.	c #95D7E6",
"#.	c #86D0E1",
"$.	c #71C8DB",
"%.	c #5CB8CB",
"&.	c #4CA1B1",
"*.	c #4799A7",
"=.	c #72BCC7",
"-.	c #B8CFD3",
";.	c #666666",
">.	c #474748",
",.	c #8C9496",
"'.	c #C1E2EA",
").	c #98D4E0",
"!.	c #91D3E0",
"~.	c #8DD0DF",
"{.	c #81CBDC",
"].	c #6FC5D8",
"^.	c #59B9CC",
"/.	c #46A4B4",
"(.	c #4092A0",
"_.	c #509CA9",
":.	c #98D0DA",
"<.	c #889699",
"[.	c #636364",
"}.	c #535556",
"|.	c #CEE9EE",
"1.	c #9CD5DF",
"2.	c #83C9D6",
"3.	c #75C1D0",
"4.	c #68BACA",
"5.	c #55B2C4",
"6.	c #46A2B3",
"7.	c #4091A0",
"8.	c #4996A5",
"9.	c #72B8C5",
"0.	c #BEE4EA",
"a.	c #606263",
"b.	c #434344",
"c.	c #798182",
"d.	c #C1E4ED",
"e.	c #92CCD7",
"f.	c #75BDCC",
"g.	c #62B2C0",
"h.	c #54A5B3",
"i.	c #4E9BA9",
"j.	c #56A0AE",
"k.	c #79BCCB",
"l.	c #B2DFE8",
"m.	c #798486",
"n.	c #5B5B5C",
"o.	c #424243",
"p.	c #777F81",
"q.	c #CCE8EE",
"r.	c #B3DEE7",
"s.	c #9AD2DD",
"t.	c #88CAD7",
"u.	c #8ECEDC",
"v.	c #ACDCE6",
"w.	c #C6E8ED",
"x.	c #778284",
"y.	c #565657",
"z.	c #675B22",
"A.	c #8C6F4F",
"B.	c #896D4F",
"C.	c #414142",
"D.	c #4E5052",
"E.	c #828E90",
"F.	c #B6CDD1",
"G.	c #CCE9ED",
"H.	c #B4CCD1",
"I.	c #819092",
"J.	c #555858",
"K.	c #525252",
"L.	c #635920",
"M.	c #84682E",
"N.	c #CA8F49",
"O.	c #D79D49",
"P.	c #434343",
"Q.	c #454545",
"R.	c #474747",
"S.	c #494949",
"T.	c #4B4B4B",
"U.	c #3C3938",
"V.	c #B47648",
"W.	c #BF8248",
"X.	c #CB9049",
"Y.	c #363637",
"Z.	c #A76848",
"`.	c #B37548",
" +	c #906741",
"          . + @ # $                             ",
"      % & * = - ; > , '                         ",
"    ) ! ~ { ] ^ / ( _ : <                       ",
"  [ } | 1 2 3 4 5 6 7 8 9 $                     ",
"  0 a 1 b c d e f g h i j k                     ",
"l m { n c o p q r s t u v w @                   ",
"x y z A B p C f D E F G H I J                   ",
"K L M N O P Q D R S T U V W X                   ",
"Y Z `  ...+.@.#.$.%.&.*.=.-.;.                  ",
">.,.'.).!.~.{.].^./.(._.:.<.[.                  ",
"  }.|.1.2.3.4.5.6.7.8.9.0.a.                    ",
"  b.c.d.e.f.g.h.i.j.k.l.m.n.                    ",
"    o.p.q.r.s.t.u.v.w.x.y.z.A.B.                ",
"      C.D.E.F.G.H.I.J.K.L.M.N.O.B.              ",
"          P.Q.R.S.T.    U.V.W.X.O.B.            ",
"                        Y.Z.`.W.X.O.B.          ",
"                          Y.Z.`.W.X.O.B.        ",
"                            Y.Z.`.W.X.O.B.      ",
"                              Y.Z.`.W.X.O.B.    ",
"                                Y.Z.`.W.X.B.    ",
"                                  Y.Z.`. +Y.    ",
"                                    Y.Y.Y.      ",
"                                                ",
"                                                "};
