/* XPM */
static char * nextdate_xpm[] = {
"22 22 193 2",
"  	c None",
". 	c #0D294B",
"+ 	c #0D2A4C",
"@ 	c #0F284A",
"# 	c #0E2D53",
"$ 	c #213359",
"% 	c #1A3155",
"& 	c #102F53",
"* 	c #35406B",
"= 	c #464F7E",
"- 	c #374B78",
"; 	c #0E2D54",
"> 	c #354472",
", 	c #8077A9",
"' 	c #7971A3",
") 	c #36466E",
"! 	c #0B2C53",
"~ 	c #234371",
"{ 	c #9D87B9",
"] 	c #BE9ACC",
"^ 	c #7C6F9F",
"/ 	c #3B4972",
"( 	c #0D233E",
"_ 	c #0B2545",
": 	c #1B5284",
"< 	c #8C83B5",
"[ 	c #C2A2D3",
"} 	c #C99CCB",
"| 	c #7C6E9C",
"1 	c #3B4870",
"2 	c #0C2B4D",
"3 	c #0A4D7C",
"4 	c #236EA7",
"5 	c #637DB1",
"6 	c #9A9ACB",
"7 	c #DDABD7",
"8 	c #7B6D9C",
"9 	c #35446B",
"0 	c #183255",
"a 	c #5C79AE",
"b 	c #A59BCD",
"c 	c #B39DCD",
"d 	c #A99BCB",
"e 	c #8691C3",
"f 	c #597DB3",
"g 	c #2C6DA7",
"h 	c #2578B0",
"i 	c #3F81B5",
"j 	c #5A8BBF",
"k 	c #ADA2D0",
"l 	c #DBABD8",
"m 	c #CC9BCB",
"n 	c #7D719F",
"o 	c #3A4A72",
"p 	c #1D3255",
"q 	c #6479AE",
"r 	c #A69FD2",
"s 	c #C9ABDB",
"t 	c #D4ADDE",
"u 	c #CEABDB",
"v 	c #B2A3D7",
"w 	c #788FC6",
"x 	c #347AB1",
"y 	c #1A73AE",
"z 	c #1977B0",
"A 	c #237EB4",
"B 	c #6291C2",
"C 	c #AF9DD1",
"D 	c #DBA7D8",
"E 	c #C69DCE",
"F 	c #796E9D",
"G 	c #37456F",
"H 	c #163053",
"I 	c #406CA3",
"J 	c #6F8AC0",
"K 	c #9A9ACD",
"L 	c #AEA2D1",
"M 	c #A89FCF",
"N 	c #8295C9",
"O 	c #5388BD",
"P 	c #1B76AF",
"Q 	c #0E6DA9",
"R 	c #0A6FA9",
"S 	c #0D72AD",
"T 	c #2881B8",
"U 	c #638FC4",
"V 	c #9399CB",
"W 	c #B8A2D4",
"X 	c #A692C5",
"Y 	c #5D6091",
"Z 	c #0E1019",
"` 	c #102F52",
" .	c #25639B",
"..	c #4979B3",
"+.	c #6785BC",
"@.	c #728ABE",
"#.	c #6886BA",
"$.	c #407DB4",
"%.	c #1C72AD",
"&.	c #0E6CA7",
"*.	c #0D69A5",
"=.	c #0D6AA7",
"-.	c #0E6EA9",
";.	c #1377B4",
">.	c #1D86BF",
",.	c #288EC3",
"'.	c #2885B8",
").	c #236BA2",
"!.	c #144471",
"~.	c #050B13",
"{.	c #0E2F52",
"].	c #146199",
"^.	c #156CA3",
"/.	c #186CA1",
"(.	c #1A6CA1",
"_.	c #196AA0",
":.	c #166BA0",
"<.	c #146BA1",
"[.	c #0E6DA7",
"}.	c #106AA2",
"|.	c #1073B1",
"1.	c #0F76B2",
"2.	c #1884BD",
"3.	c #228FC3",
"4.	c #1885BB",
"5.	c #0C69A0",
"6.	c #07426B",
"7.	c #05233B",
"8.	c #0E2E51",
"9.	c #106196",
"0.	c #1271A7",
"a.	c #1872A5",
"b.	c #2175A8",
"c.	c #2476A7",
"d.	c #2678A7",
"e.	c #2379AE",
"f.	c #1478AF",
"g.	c #1076B1",
"h.	c #127AB6",
"i.	c #1E87C0",
"j.	c #2B93C6",
"k.	c #298BBC",
"l.	c #176CA0",
"m.	c #0C416C",
"n.	c #0A233D",
"o.	c #0D2342",
"p.	c #0C3156",
"q.	c #0D3761",
"r.	c #0E3A64",
"s.	c #0D3A64",
"t.	c #0E3B66",
"u.	c #0E3861",
"v.	c #0E4371",
"w.	c #0F588C",
"x.	c #0F6195",
"y.	c #197EB4",
"z.	c #328BBD",
"A.	c #1970A4",
"B.	c #0C4772",
"C.	c #08223C",
"D.	c #0C203C",
"E.	c #091C34",
"F.	c #091F37",
"G.	c #071E34",
"H.	c #051C30",
"I.	c #081F34",
"J.	c #091B34",
"K.	c #092646",
"L.	c #0B3560",
"M.	c #0E4D7E",
"N.	c #237BAD",
"O.	c #2A88BA",
"P.	c #1A699B",
"Q.	c #0F446D",
"R.	c #082741",
"S.	c #0F4270",
"T.	c #176094",
"U.	c #186498",
"V.	c #0E436F",
"W.	c #082542",
"X.	c #0E3B67",
"Y.	c #0E4C7F",
"Z.	c #0C3E6A",
"`.	c #08243F",
" +	c #0D3460",
".+	c #0B335C",
"++	c #072640",
"@+	c #0A2C53",
"#+	c #0A2748",
"$+	c #06172E",
"%+	c #0C2A4C",
"&+	c #060E1E",
"*+	c #061125",
"                    .                       ",
"                    + @                     ",
"                    # $ %                   ",
"                    & * = -                 ",
"                    ; > , ' )               ",
"                    ! ~ { ] ^ /             ",
"    ( ( ( ( ( ( ( ( _ : < [ } | 1           ",
"    2 3 3 3 3 3 3 3 3 4 5 6 7 } 8 9         ",
"    0 a b c c d e f g h i j k l m n o       ",
"    p q r s t u v w x y z A B C D E F G     ",
"    H I J K L M N O P Q R S T U V W X Y Z   ",
"    `  ...+.@.#.$.%.&.*.=.-.;.>.,.'.).!.~.  ",
"    {.].^./.(._.:.<.[.}.|.1.2.3.4.5.6.7.    ",
"    8.9.0.a.b.c.d.e.f.g.h.i.j.k.l.m.n.      ",
"    o.p.q.r.s.t.u.v.w.x.y.j.z.A.B.C.        ",
"    D.E.F.G.H.I.J.K.L.M.N.O.P.Q.R.          ",
"                    ! S.T.U.V.W.            ",
"                    ; X.Y.Z.`.              ",
"                    #  +.+++                ",
"                    @+#+$+                  ",
"                    %+&+                    ",
"                    *+                      "};
