/* XPM */
static char * previousdate_xpm[] = {
"22 22 193 2",
"  	c None",
". 	c #0D294B",
"+ 	c #0F284A",
"@ 	c #0D2A4C",
"# 	c #1A3155",
"$ 	c #213359",
"% 	c #0E2D53",
"& 	c #374B78",
"* 	c #464F7E",
"= 	c #35406B",
"- 	c #102F53",
"; 	c #36466E",
"> 	c #7971A3",
", 	c #8077A9",
"' 	c #354472",
") 	c #0E2D54",
"! 	c #3B4972",
"~ 	c #7C6F9F",
"{ 	c #BE9ACC",
"] 	c #9D87B9",
"^ 	c #234371",
"/ 	c #0B2C53",
"( 	c #3B4870",
"_ 	c #7C6E9C",
": 	c #C99CCB",
"< 	c #C2A2D3",
"[ 	c #8C83B5",
"} 	c #1B5284",
"| 	c #0B2545",
"1 	c #0D233E",
"2 	c #35446B",
"3 	c #7B6D9C",
"4 	c #DDABD7",
"5 	c #9A9ACB",
"6 	c #637DB1",
"7 	c #236EA7",
"8 	c #0A4D7C",
"9 	c #0C2B4D",
"0 	c #3A4A72",
"a 	c #7D719F",
"b 	c #CC9BCB",
"c 	c #DBABD8",
"d 	c #ADA2D0",
"e 	c #5A8BBF",
"f 	c #3F81B5",
"g 	c #2578B0",
"h 	c #2C6DA7",
"i 	c #597DB3",
"j 	c #8691C3",
"k 	c #A99BCB",
"l 	c #B39DCD",
"m 	c #A59BCD",
"n 	c #5C79AE",
"o 	c #183255",
"p 	c #37456F",
"q 	c #796E9D",
"r 	c #C69DCE",
"s 	c #DBA7D8",
"t 	c #AF9DD1",
"u 	c #6291C2",
"v 	c #237EB4",
"w 	c #1977B0",
"x 	c #1A73AE",
"y 	c #347AB1",
"z 	c #788FC6",
"A 	c #B2A3D7",
"B 	c #CEABDB",
"C 	c #D4ADDE",
"D 	c #C9ABDB",
"E 	c #A69FD2",
"F 	c #6479AE",
"G 	c #1D3255",
"H 	c #0E1019",
"I 	c #5D6091",
"J 	c #A692C5",
"K 	c #B8A2D4",
"L 	c #9399CB",
"M 	c #638FC4",
"N 	c #2881B8",
"O 	c #0D72AD",
"P 	c #0A6FA9",
"Q 	c #0E6DA9",
"R 	c #1B76AF",
"S 	c #5388BD",
"T 	c #8295C9",
"U 	c #A89FCF",
"V 	c #AEA2D1",
"W 	c #9A9ACD",
"X 	c #6F8AC0",
"Y 	c #406CA3",
"Z 	c #163053",
"` 	c #050B13",
" .	c #144471",
"..	c #236BA2",
"+.	c #2885B8",
"@.	c #288EC3",
"#.	c #1D86BF",
"$.	c #1377B4",
"%.	c #0E6EA9",
"&.	c #0D6AA7",
"*.	c #0D69A5",
"=.	c #0E6CA7",
"-.	c #1C72AD",
";.	c #407DB4",
">.	c #6886BA",
",.	c #728ABE",
"'.	c #6785BC",
").	c #4979B3",
"!.	c #25639B",
"~.	c #102F52",
"{.	c #05233B",
"].	c #07426B",
"^.	c #0C69A0",
"/.	c #1885BB",
"(.	c #228FC3",
"_.	c #1884BD",
":.	c #0F76B2",
"<.	c #1073B1",
"[.	c #106AA2",
"}.	c #0E6DA7",
"|.	c #146BA1",
"1.	c #166BA0",
"2.	c #196AA0",
"3.	c #1A6CA1",
"4.	c #186CA1",
"5.	c #156CA3",
"6.	c #146199",
"7.	c #0E2F52",
"8.	c #0A233D",
"9.	c #0C416C",
"0.	c #176CA0",
"a.	c #298BBC",
"b.	c #2B93C6",
"c.	c #1E87C0",
"d.	c #127AB6",
"e.	c #1076B1",
"f.	c #1478AF",
"g.	c #2379AE",
"h.	c #2678A7",
"i.	c #2476A7",
"j.	c #2175A8",
"k.	c #1872A5",
"l.	c #1271A7",
"m.	c #106196",
"n.	c #0E2E51",
"o.	c #08223C",
"p.	c #0C4772",
"q.	c #1970A4",
"r.	c #328BBD",
"s.	c #197EB4",
"t.	c #0F6195",
"u.	c #0F588C",
"v.	c #0E4371",
"w.	c #0E3861",
"x.	c #0E3B66",
"y.	c #0D3A64",
"z.	c #0E3A64",
"A.	c #0D3761",
"B.	c #0C3156",
"C.	c #0D2342",
"D.	c #082741",
"E.	c #0F446D",
"F.	c #1A699B",
"G.	c #2A88BA",
"H.	c #237BAD",
"I.	c #0E4D7E",
"J.	c #0B3560",
"K.	c #092646",
"L.	c #091B34",
"M.	c #081F34",
"N.	c #051C30",
"O.	c #071E34",
"P.	c #091F37",
"Q.	c #091C34",
"R.	c #0C203C",
"S.	c #082542",
"T.	c #0E436F",
"U.	c #186498",
"V.	c #176094",
"W.	c #0F4270",
"X.	c #08243F",
"Y.	c #0C3E6A",
"Z.	c #0E4C7F",
"`.	c #0E3B67",
" +	c #072640",
".+	c #0B335C",
"++	c #0D3460",
"@+	c #06172E",
"#+	c #0A2748",
"$+	c #0A2C53",
"%+	c #060E1E",
"&+	c #0C2A4C",
"*+	c #061125",
"                      .                     ",
"                    + @                     ",
"                  # $ %                     ",
"                & * = -                     ",
"              ; > , ' )                     ",
"            ! ~ { ] ^ /                     ",
"          ( _ : < [ } | 1 1 1 1 1 1 1 1     ",
"        2 3 : 4 5 6 7 8 8 8 8 8 8 8 8 9     ",
"      0 a b c d e f g h i j k l l m n o     ",
"    p q r s t u v w x y z A B C D E F G     ",
"  H I J K L M N O P Q R S T U V W X Y Z     ",
"  `  ...+.@.#.$.%.&.*.=.-.;.>.,.'.).!.~.    ",
"    {.].^./.(._.:.<.[.}.|.1.2.3.4.5.6.7.    ",
"      8.9.0.a.b.c.d.e.f.g.h.i.j.k.l.m.n.    ",
"        o.p.q.r.b.s.t.u.v.w.x.y.z.A.B.C.    ",
"          D.E.F.G.H.I.J.K.L.M.N.O.P.Q.R.    ",
"            S.T.U.V.W./                     ",
"              X.Y.Z.`.)                     ",
"                 +.+++%                     ",
"                  @+#+$+                    ",
"                    %+&+                    ",
"                      *+                    "};
