/* XPM */
static char * removetab_xpm[] = {
"24 24 113 2",
"  	c None",
". 	c #636362",
"+ 	c #9B9A99",
"@ 	c #848382",
"# 	c #8B8986",
"$ 	c #8E8D8A",
"% 	c #DCDAD5",
"& 	c #E79591",
"* 	c #E79794",
"= 	c #DCD8D4",
"- 	c #878580",
"; 	c #CFCDC8",
"> 	c #DCD9D4",
", 	c #E69C98",
"' 	c #E4A5A1",
") 	c #E4A9A5",
"! 	c #F92625",
"~ 	c #ED7370",
"{ 	c #DECFCB",
"] 	c #85837E",
"^ 	c #D0CAC5",
"/ 	c #EA8380",
"( 	c #F82A29",
"_ 	c #E3B1AC",
": 	c #E1B9B5",
"< 	c #F63A39",
"[ 	c #F44342",
"} 	c #E2B6B1",
"| 	c #8D807B",
"1 	c #E25F5D",
"2 	c #F73332",
"3 	c #E2B5B1",
"4 	c #C7C5C1",
"5 	c #A9A8A4",
"6 	c #858481",
"7 	c #D4D2CE",
"8 	c #D2D0CB",
"9 	c #D2D1CC",
"0 	c #D5D3CE",
"a 	c #D3D2CD",
"b 	c #BCBBB6",
"c 	c #CECCC7",
"d 	c #D9D7D2",
"e 	c #B19F9C",
"f 	c #DB3130",
"g 	c #FE0A09",
"h 	c #EA2523",
"i 	c #F62D2C",
"j 	c #E1BCB8",
"k 	c #D3D1CC",
"l 	c #BFBDB9",
"m 	c #73726F",
"n 	c #A4A29E",
"o 	c #72716F",
"p 	c #747371",
"q 	c #5D5C5A",
"r 	c #706F6D",
"s 	c #848380",
"t 	c #7E7D7A",
"u 	c #959490",
"v 	c #B8A9A6",
"w 	c #E93735",
"x 	c #FB1919",
"y 	c #FB0101",
"z 	c #E5A09C",
"A 	c #8A8985",
"B 	c #B3B1AD",
"C 	c #AEADA9",
"D 	c #AFADA9",
"E 	c #666563",
"F 	c #898885",
"G 	c #B6B4B0",
"H 	c #A7A5A2",
"I 	c #817B79",
"J 	c #F05F5D",
"K 	c #FB1615",
"L 	c #EE6866",
"M 	c #EB3634",
"N 	c #F53534",
"O 	c #DFCAC5",
"P 	c #BCBAB6",
"Q 	c #CFCDC9",
"R 	c #D4807D",
"S 	c #FD0E0E",
"T 	c #ED716E",
"U 	c #DDD6D1",
"V 	c #9A817C",
"W 	c #ED2828",
"X 	c #F05B59",
"Y 	c #DDD4CF",
"Z 	c #E1B8B4",
"` 	c #FA2120",
" .	c #EF6664",
"..	c #DDD2CD",
"+.	c #D4ACA8",
"@.	c #F92525",
"#.	c #EB7C79",
"$.	c #EC7774",
"%.	c #DDD5D0",
"&.	c #AEACA7",
"*.	c #E1DFDC",
"=.	c #EFB9B7",
"-.	c #FB2C2C",
";.	c #EBC0BD",
">.	c #E8E7E4",
",.	c #F5F5F3",
"'.	c #F7F6F5",
").	c #F8F2F0",
"!.	c #F7F4F3",
"~.	c #FADCDB",
"{.	c #F8EBEA",
"].	c #FDFDFD",
"^.	c #FFFFFF",
". + + + + + + + + + + + + + + + + + @ # $ $ $ $ ",
"+ % % % % % % % % % % % % & * = % % - ; > , ' % ",
"+ % % % % % % % % % % % % ) ! ~ { % ] ^ / ( _ % ",
"+ % % % % % % % % % % % % % : < [ } | 1 2 3 % % ",
"+ % % 4 5 6 $ 7 8 9 0 a b c d e f g h i j % % % ",
"+ % % k l m $ n o p q r s t u v w x y z % % % % ",
"+ % % % % A $ B C D E F G H I J K L M N O % % % ",
"+ % % % % % % % % % P % % Q R S T U V W X Y % % ",
"+ % % % % % % % % % % % % Z `  ...% ] +.@.#.> % ",
"+ % % % % % % % % % % % % $. .%.% % &.*.=.-.;.>.",
"+ ,.'.'.'.'.'.'.'.'.'.'.'.).!.'.'.'.'.'.'.~.{.'.",
"+ ].^.^.^.^.^.^.^.^.^.^.^.^.^.^.^.^.^.^.^.^.^.^.",
"+ ].^.^.^.^.^.^.^.^.^.^.^.^.^.^.^.^.^.^.^.^.^.^.",
"+ ].^.^.^.^.^.^.^.^.^.^.^.^.^.^.^.^.^.^.^.^.^.^.",
"+ ].^.^.^.^.^.^.^.^.^.^.^.^.^.^.^.^.^.^.^.^.^.^.",
"+ ].^.^.^.^.^.^.^.^.^.^.^.^.^.^.^.^.^.^.^.^.^.^.",
"+ ].^.^.^.^.^.^.^.^.^.^.^.^.^.^.^.^.^.^.^.^.^.^.",
"+ ].^.^.^.^.^.^.^.^.^.^.^.^.^.^.^.^.^.^.^.^.^.^.",
"+ ].^.^.^.^.^.^.^.^.^.^.^.^.^.^.^.^.^.^.^.^.^.^.",
"+ ].^.^.^.^.^.^.^.^.^.^.^.^.^.^.^.^.^.^.^.^.^.^.",
"+ ].^.^.^.^.^.^.^.^.^.^.^.^.^.^.^.^.^.^.^.^.^.^.",
"+ ].^.^.^.^.^.^.^.^.^.^.^.^.^.^.^.^.^.^.^.^.^.^.",
"+ ].^.^.^.^.^.^.^.^.^.^.^.^.^.^.^.^.^.^.^.^.^.^.",
"+ ].^.^.^.^.^.^.^.^.^.^.^.^.^.^.^.^.^.^.^.^.^.^."};
