/* XPM */
static char * removetab_xpm[] = {
"22 22 125 2",
"  	c None",
". 	c #535353",
"+ 	c #4A4A4A",
"@ 	c #424242",
"# 	c #3A3A3A",
"$ 	c #313131",
"% 	c #292929",
"& 	c #212121",
"* 	c #181818",
"= 	c #101010",
"- 	c #080808",
"; 	c #000000",
"> 	c #4C4C4C",
", 	c #DEDEDE",
"' 	c #D6D6D6",
") 	c #C6C6C6",
"! 	c #B4B4B4",
"~ 	c #989898",
"{ 	c #464646",
"] 	c #FFFFFF",
"^ 	c #ECECEC",
"/ 	c #E1E1E1",
"( 	c #141414",
"_ 	c #C9C9C9",
": 	c #3F3F3F",
"< 	c #393939",
"[ 	c #3E3E3E",
"} 	c #E0E0E0",
"| 	c #333333",
"1 	c #2C2C2C",
"2 	c #FDFDFD",
"3 	c #F0EEEC",
"4 	c #CFCBC4",
"5 	c #B8B1A9",
"6 	c #857F7A",
"7 	c #262626",
"8 	c #FEFDFC",
"9 	c #FDFAF7",
"0 	c #E4E0DB",
"a 	c #D0C8C1",
"b 	c #A09B97",
"c 	c #1F1F1F",
"d 	c #FEFDFB",
"e 	c #FCF8F5",
"f 	c #FBF3EE",
"g 	c #F9F0E8",
"h 	c #EADFD5",
"i 	c #BBB2AB",
"j 	c #191919",
"k 	c #FEBEBE",
"l 	c #FEFCFB",
"m 	c #FAF4EE",
"n 	c #FAAEA3",
"o 	c #F5E6D9",
"p 	c #C6B8AC",
"q 	c #820202",
"r 	c #FE0202",
"s 	c #131313",
"t 	c #FAD2CE",
"u 	c #FDFCFA",
"v 	c #FBF7F3",
"w 	c #D9CEC7",
"x 	c #F3E1D2",
"y 	c #D2C0B1",
"z 	c #0C0C0C",
"A 	c #F4E1D2",
"B 	c #F2DDCB",
"C 	c #D0BCAB",
"D 	c #060606",
"E 	c #FEFEFE",
"F 	c #F3E1D1",
"G 	c #F0D8C3",
"H 	c #CFB8A5",
"I 	c #FDFBF9",
"J 	c #F5E5D8",
"K 	c #FEFEFD",
"L 	c #FDFAF8",
"M 	c #F1DCC9",
"N 	c #EFD8C3",
"O 	c #EED3BC",
"P 	c #CEB49F",
"Q 	c #FFFEFE",
"R 	c #ECCEB5",
"S 	c #CCB099",
"T 	c #020202",
"U 	c #F4E4D6",
"V 	c #F2DFCE",
"W 	c #D6C0AF",
"X 	c #EAC9AD",
"Y 	c #CBAC93",
"Z 	c #FBF5F0",
"` 	c #FE7E7A",
" .	c #D9CBC0",
"..	c #F4E3D5",
"+.	c #F2E0CF",
"@.	c #F1DAC7",
"#.	c #EFD7C1",
"$.	c #CEB69D",
"%.	c #E9C5A6",
"&.	c #C9A88D",
"*.	c #F7EBE1",
"=.	c #F6E8DB",
"-.	c #F4E3D4",
";.	c #F2DECE",
">.	c #F1DBC7",
",.	c #EFD6C0",
"'.	c #EED2BA",
").	c #ECCDB3",
"!.	c #EAC9AC",
"~.	c #E8C5A6",
"{.	c #E7C2A2",
"].	c #C8A487",
"^.	c #D8D0CA",
"/.	c #D7CCC4",
"(.	c #D6C8BE",
"_.	c #D4C4B8",
":.	c #D2C0B2",
"<.	c #D1BDAC",
"[.	c #CFB8A6",
"}.	c #CEB5A0",
"|.	c #CDB09A",
"1.	c #CBAD94",
"2.	c #C9A88E",
"3.	c #C8A488",
"4.	c #C7A081",
"      . + @ # $ % & * = - ; ;               ",
"      > , , , , , , ' ) ! ; ~ ;             ",
"      { , ] ] ] ] ] ] ^ / ( _ ~ ;           ",
"      : , ] ] ] ] ] ] ] ^ % ] _ ~ ;         ",
"      < , ] ] ] ] ] ] ] ] [ } ] _ ~ ;       ",
"      | , ] ] ] ] ] ] ] ] . [ % ( ; ;       ",
"      1 , ] ] ] ] ] ] ] ] 2 3 4 5 6 ;       ",
"      7 , ] ] ] ] ] ] ] ] 8 9 0 a b ;       ",
"      c , ] ] ] ] ] ] ] d e f g h i ;       ",
"      j , ] k ] ] ] ] l e m n k o p ;       ",
"      j , ] q r ] ] ] l e n r q o p ;       ",
"      s , ] } q r t u v n r q w x y ;       ",
"      z , ] ] } q r t t r q w A B C ;       ",
"      D , ] ] E } q r r q w F B G H ;       ",
"      D , ] ] E I t r r n J F B G H ;       ",
"      ; , ] K L t r q q r n M N O P ;       ",
"      ; , Q 9 t r q w w q r n O R S ;       ",
"      T , 9 t r q w U V W q r n X Y ;       ",
"      ; , Z ` q  ...+.@.#.$.q ` %.&.;       ",
"      ; , g *.=.-.;.>.,.'.).!.~.{.].;       ",
"      ; ^.^./.(._.:.<.[.}.|.1.2.3.4.;       ",
"      ; ; ; ; ; ; ; ; ; ; ; ; ; ; ; ;       "};
