/* XPM */
static char * splitremove_xpm[] = {
"16 16 154 2",
"  	c None",
". 	c #80AADB",
"+ 	c #89B2E2",
"@ 	c #83AFE2",
"# 	c #7CABE2",
"$ 	c #74A8E2",
"% 	c #6DA4E2",
"& 	c #65A0E2",
"* 	c #609EE2",
"= 	c #5E9CE2",
"- 	c #5E9DE2",
"; 	c #65A0E4",
"> 	c #4299E6",
", 	c #003458",
"' 	c #8BB3E2",
") 	c #ADD4FF",
"! 	c #93C7FF",
"~ 	c #74B8FF",
"{ 	c #51A7FF",
"] 	c #2F95FF",
"^ 	c #0F86FF",
"/ 	c #007AFF",
"( 	c #0074FF",
"_ 	c #0075FF",
": 	c #0076FF",
"< 	c #007DFC",
"[ 	c #003656",
"} 	c #91B5E1",
"| 	c #CDE1F8",
"1 	c #C2DBF8",
"2 	c #B9D7F8",
"3 	c #AFD2F8",
"4 	c #A4CDF8",
"5 	c #9AC8F8",
"6 	c #92C5F8",
"7 	c #8EC3F8",
"8 	c #8DC2F8",
"9 	c #8BC2F8",
"0 	c #8AC1F8",
"a 	c #92C5FA",
"b 	c #5FB1F4",
"c 	c #003257",
"d 	c #9CBCE2",
"e 	c #FDFEFD",
"f 	c #F7FAFD",
"g 	c #F6FBFD",
"h 	c #F5FBFD",
"i 	c #F3FCFD",
"j 	c #F1FAFD",
"k 	c #EEF9FD",
"l 	c #EBF8FD",
"m 	c #E9F7FD",
"n 	c #F0FBFE",
"o 	c #8FC9F1",
"p 	c #003056",
"q 	c #FDFFFF",
"r 	c #F5FBFF",
"s 	c #F3FBFF",
"t 	c #F0FAFF",
"u 	c #EDF8FF",
"v 	c #EAF8FF",
"w 	c #E7F7FF",
"x 	c #E4F5FF",
"y 	c #E2F4FF",
"z 	c #DEF3FF",
"A 	c #DCF2FF",
"B 	c #E2F5FF",
"C 	c #84C4F2",
"D 	c #9BBCE2",
"E 	c #FAFEFF",
"F 	c #F2F9FF",
"G 	c #EFF9FF",
"H 	c #ECF8FF",
"I 	c #E9F7FF",
"J 	c #E7F6FF",
"K 	c #E3F5FF",
"L 	c #E1F3FF",
"M 	c #DDF2FF",
"N 	c #DAF1FF",
"O 	c #D8F1FF",
"P 	c #DEF4FF",
"Q 	c #83C4F2",
"R 	c #9ABCE2",
"S 	c #F7FEFF",
"T 	c #F0F9FF",
"U 	c #E6F6FF",
"V 	c #E0F4FF",
"W 	c #DEF2FF",
"X 	c #D7F0FF",
"Y 	c #D5F0FF",
"Z 	c #DAF3FF",
"` 	c #81C3F2",
" .	c #9ABBE2",
"..	c #F4FDFF",
"+.	c #E6F7FF",
"@.	c #DDF3FF",
"#.	c #D6F0FF",
"$.	c #D3EFFF",
"%.	c #D2EFFF",
"&.	c #D7F2FF",
"*.	c #80C3F2",
"=.	c #99BBE2",
"-.	c #F1FBFF",
";.	c #D7EFFF",
">.	c #D1EEFF",
",.	c #CFEDFF",
"'.	c #7EC2F2",
").	c #98BBE2",
"!.	c #EEFBFF",
"~.	c #D7F1FF",
"{.	c #D4EFFF",
"].	c #D0EEFF",
"^.	c #CDEDFF",
"/.	c #CCECFF",
"(.	c #D1EFFF",
"_.	c #7CC2F2",
":.	c #EBFAFF",
"<.	c #D3F0FF",
"[.	c #CAECFF",
"}.	c #C8ECFF",
"|.	c #CFEFFF",
"1.	c #7CC1F2",
"2.	c #97BBE2",
"3.	c #E9F9FF",
"4.	c #E1F4FF",
"5.	c #DBF2FF",
"6.	c #D8F0FF",
"7.	c #CBECFF",
"8.	c #C9ECFF",
"9.	c #C6EBFF",
"0.	c #CCEEFF",
"a.	c #7AC0F2",
"b.	c #003156",
"c.	c #9FBEE4",
"d.	c #EFFCFF",
"e.	c #E4F6FF",
"f.	c #E1F6FF",
"g.	c #DBF3FF",
"h.	c #D8F2FF",
"i.	c #D4F0FF",
"j.	c #CDEEFF",
"k.	c #D5F2FF",
"l.	c #81C4F5",
"m.	c #64A9E4",
"n.	c #8BC8F3",
"o.	c #87C6F2",
"p.	c #86C5F2",
"q.	c #7AC1F2",
"r.	c #81C5F5",
"s.	c #54B4F6",
"t.	c #00375F",
"u.	c #003358",
"v.	c #00375E",
"w.	c #001A2B",
". + @ # $ % & * = - - - ; > ,   ",
"' ) ! ~ { ] ^ / ( _ _ _ : < [   ",
"} | 1 2 3 4 5 6 7 8 9 0 a b c   ",
"d e f g g g h i j k l m n o p   ",
"d q r s t u v w x y z A B C p   ",
"D E F G H I J K L M N O P Q p   ",
"R S T u I U x V W N X Y Z ` p   ",
" ...H I +.K V @.N #.$.%.&.*.p   ",
"=.-.I J x L W N ;.$.>.,.Y '.p   ",
").!.J K V M N ~.{.].^./.(._.p   ",
").:.K V @.N X <.].^.[.}.|.1.p   ",
"2.3.4.z 5.6.Y %.,.7.8.9.0.a.b.  ",
"c.d.w e.f.P g.h.i.%.|.j.k.l.b.  ",
"m.n.o.p.C Q ` *.'.1.1.q.r.s.t.  ",
"u.p p p p p p p p p p p p v.w.  ",
"                                "};
