/* XPM */
static char * splitleftright_xpm[] = {
"16 16 179 2",
"  	c None",
". 	c #81ABDC",
"+ 	c #8AB3E3",
"@ 	c #83AFE3",
"# 	c #7BABE3",
"$ 	c #72A7E3",
"% 	c #69A2E3",
"& 	c #619FE3",
"* 	c #5C9CE3",
"= 	c #5B9CE3",
"- 	c #5BA1E9",
"; 	c #0A629D",
"> 	c #8CB4E4",
", 	c #AED5FF",
"' 	c #91C6FF",
") 	c #6FB6FF",
"! 	c #4BA4FF",
"~ 	c #2691FF",
"{ 	c #0A83FF",
"] 	c #0078FF",
"^ 	c #0076FF",
"/ 	c #007CFF",
"( 	c #005DA0",
"_ 	c #95B7E1",
": 	c #D5E5F9",
"< 	c #CAE0F7",
"[ 	c #C4DDF7",
"} 	c #BCD9F7",
"| 	c #B5D6F7",
"1 	c #A8CEF5",
"2 	c #A1CBF5",
"3 	c #A6D0F7",
"4 	c #A4CEF7",
"5 	c #A2CEF7",
"6 	c #A1CDF7",
"7 	c #9CCFFE",
"8 	c #11669F",
"9 	c #9FBEE3",
"0 	c #FFFFFF",
"a 	c #F8FCFF",
"b 	c #F7FDFF",
"c 	c #F6FCFF",
"d 	c #FDFFFF",
"e 	c #BCD3EB",
"f 	c #B6CFE9",
"g 	c #F1FCFF",
"h 	c #EBF9FF",
"i 	c #E7F7FF",
"j 	c #E7F8FF",
"k 	c #CFECFF",
"l 	c #14679E",
"m 	c #9EBEE3",
"n 	c #F3FAFF",
"o 	c #F0FAFF",
"p 	c #EEF9FF",
"q 	c #F3FDFF",
"r 	c #B2CFEC",
"s 	c #ADCBEA",
"t 	c #E5F6FF",
"u 	c #DFF3FF",
"v 	c #DBF1FF",
"w 	c #DAF2FF",
"x 	c #C4E6FF",
"y 	c #13679E",
"z 	c #9DBEE3",
"A 	c #FAFFFF",
"B 	c #F0F9FF",
"C 	c #EBF8FF",
"D 	c #EFFCFF",
"E 	c #B1CEEC",
"F 	c #AECBEA",
"G 	c #E2F5FF",
"H 	c #DBF2FF",
"I 	c #D8F0FF",
"J 	c #D7F2FF",
"K 	c #C1E6FF",
"L 	c #F8FFFF",
"M 	c #EBF7FF",
"N 	c #E8F7FF",
"O 	c #ECFCFF",
"P 	c #B0CEEC",
"Q 	c #D4F0FF",
"R 	c #D3F3FF",
"S 	c #BCE7FF",
"T 	c #13669E",
"U 	c #9CBDE3",
"V 	c #F4FDFF",
"W 	c #EAF7FF",
"X 	c #E4F5FF",
"Y 	c #E9FAFF",
"Z 	c #AECDEC",
"` 	c #AECBE9",
" .	c #DBF4FF",
"..	c #D2F6FF",
"+.	c #CEF2FF",
"@.	c #DFD3B0",
"#.	c #CDC8B2",
"$.	c #0E68A8",
"%.	c #9BBDE3",
"&.	c #F2FCFF",
"*.	c #E4F6FF",
"=.	c #E1F4FF",
"-.	c #E6F8FF",
";.	c #ADCCEC",
">.	c #ADCEF0",
",.	c #D8EDFA",
"'.	c #DDCFBE",
").	c #D4DDE6",
"!.	c #FFC12D",
"~.	c #FAC231",
"{.	c #1C6093",
"].	c #9ABDE3",
"^.	c #EEFCFF",
"/.	c #DEF2FF",
"(.	c #E2F7FF",
"_.	c #AACDEE",
":.	c #AEC7EB",
"<.	c #F4C664",
"[.	c #EFB900",
"}.	c #D9A954",
"|.	c #DFC547",
"1.	c #DAC244",
"2.	c #9B8441",
"3.	c #FDCE14",
"4.	c #FFB520",
"5.	c #EBFAFF",
"6.	c #DEF3FF",
"7.	c #DEF5FF",
"8.	c #A8CCED",
"9.	c #ACCBF0",
"0.	c #E4CE9E",
"a.	c #F4D331",
"b.	c #F1DC59",
"c.	c #F2F5B1",
"d.	c #F2F5B2",
"e.	c #FEE55F",
"f.	c #E7CA2D",
"g.	c #EBFBFF",
"h.	c #E0F5FF",
"i.	c #DDF4FF",
"j.	c #DDF7FF",
"k.	c #A8CCEC",
"l.	c #AFCCEA",
"m.	c #CAF9FF",
"n.	c #E1B587",
"o.	c #BDA117",
"p.	c #FEFFEB",
"q.	c #CDB52B",
"r.	c #80430A",
"s.	c #93BDEA",
"t.	c #D0EDFF",
"u.	c #C9E9FF",
"v.	c #C7E8FF",
"w.	c #C4E7FF",
"x.	c #C7EBFF",
"y.	c #9DC8F1",
"z.	c #ADD3FA",
"A.	c #D1D9D2",
"B.	c #F3C74C",
"C.	c #EEE262",
"D.	c #FCFFCF",
"E.	c #F4E969",
"F.	c #CFA32A",
"G.	c #10649D",
"H.	c #14679F",
"I.	c #13679F",
"J.	c #10649F",
"K.	c #1B649B",
"L.	c #D29B2C",
"M.	c #FFE20E",
"N.	c #CA9321",
"O.	c #D8CC59",
"P.	c #C9911F",
"Q.	c #FFE81A",
"R.	c #FFC021",
"S.	c #8C5411",
"T.	c #F6C02E",
"U.	c #884F0F",
"V.	c #FBA21E",
". + @ # $ % & * = = = * - ;     ",
"> , ' ) ! ~ { ] ^ ^ ^ ^ / (     ",
"_ : < [ } | 1 2 3 4 5 6 7 8     ",
"9 0 a b c d e f g h i j k l     ",
"m d n o p q r s t u v w x y     ",
"z A B p C D E F G H I J K y     ",
"z L p M N O P F u I Q R S T     ",
"U V W i X Y Z `  ...+.@.#.$.    ",
"%.&.N *.=.-.;.>.,.'.).!.~.{.    ",
"].^.X =./.(._.:.<.[.}.|.1.2.3.4.",
"].5.=.6.v 7.8.9.0.a.b.c.d.e.f.  ",
"].g.h.i.w j.k.l.m.n.o.p.p.q.r.  ",
"s.t.u.v.w.x.y.z.A.B.C.D.D.E.F.  ",
"G.H.y y y I.J.K.L.M.N.O.O.P.Q.R.",
"                  S.  T.T.  U.  ",
"                      V.V.      "};
