/* XPM */
static char * splittopbottom_xpm[] = {
"16 16 181 2",
"  	c None",
". 	c #81ABDC",
"+ 	c #8AB3E3",
"@ 	c #83AFE3",
"# 	c #7BABE3",
"$ 	c #72A7E3",
"% 	c #69A2E3",
"& 	c #619FE3",
"* 	c #5C9CE3",
"= 	c #5B9CE3",
"- 	c #5BA1E9",
"; 	c #0A629D",
"> 	c #8CB4E4",
", 	c #AED5FF",
"' 	c #91C6FF",
") 	c #6FB6FF",
"! 	c #4BA4FF",
"~ 	c #2791FF",
"{ 	c #0882FF",
"] 	c #0077FF",
"^ 	c #0076FF",
"/ 	c #007CFF",
"( 	c #005DA0",
"_ 	c #95B7E1",
": 	c #D5E5F9",
"< 	c #CAE0F7",
"[ 	c #C4DDF7",
"} 	c #BCD9F7",
"| 	c #B4D6F7",
"1 	c #AED2F7",
"2 	c #A7D0F7",
"3 	c #A6CFF7",
"4 	c #A4CEF7",
"5 	c #A2CEF7",
"6 	c #A1CDF7",
"7 	c #9CCFFE",
"8 	c #11669F",
"9 	c #9FBEE3",
"0 	c #FFFFFF",
"a 	c #F8FCFF",
"b 	c #F7FDFF",
"c 	c #F6FCFF",
"d 	c #F5FCFF",
"e 	c #F3FCFF",
"f 	c #F0FBFF",
"g 	c #EEFAFF",
"h 	c #EAF8FF",
"i 	c #E7F7FF",
"j 	c #E7F8FF",
"k 	c #CFECFF",
"l 	c #14679E",
"m 	c #9EBEE3",
"n 	c #FDFFFF",
"o 	c #F3FAFF",
"p 	c #F0FAFF",
"q 	c #EEF9FF",
"r 	c #EBF7FF",
"s 	c #E8F7FF",
"t 	c #E5F5FF",
"u 	c #E2F4FF",
"v 	c #DEF2FF",
"w 	c #DBF1FF",
"x 	c #DAF2FF",
"y 	c #C4E6FF",
"z 	c #13679E",
"A 	c #A0C0E4",
"B 	c #F9FFFF",
"C 	c #F6FFFF",
"D 	c #F3FEFF",
"E 	c #EFFCFF",
"F 	c #EDFCFF",
"G 	c #E8FAFF",
"H 	c #E5F9FF",
"I 	c #E2F7FF",
"J 	c #DEF6FF",
"K 	c #DDF7FF",
"L 	c #C6EAFF",
"M 	c #8DB3DE",
"N 	c #BBD3EC",
"O 	c #B6D0EC",
"P 	c #B4CFEC",
"Q 	c #B3CFEC",
"R 	c #B0CEEC",
"S 	c #AFCEEC",
"T 	c #ADCDEC",
"U 	c #ACCCEC",
"V 	c #AACBEC",
"W 	c #A8CBEC",
"X 	c #A7CEF3",
"Y 	c #9BCAF7",
"Z 	c #10659D",
"` 	c #8CB1DD",
" .	c #B6CFEC",
"..	c #B3CDEA",
"+.	c #B3CCEA",
"@.	c #B2CEEE",
"#.	c #B1D3F9",
"$.	c #B1D1F3",
"%.	c #C3B59E",
"&.	c #B6B6A8",
"*.	c #0C67A7",
"=.	c #9CBEE3",
"-.	c #ECF9FF",
";.	c #E8F8FF",
">.	c #E5F6FF",
",.	c #E3F5FF",
"'.	c #E0F4FF",
").	c #DBF6FF",
"!.	c #D9EDFB",
"~.	c #E2D2BF",
"{.	c #D9E0E8",
"].	c #FFC52F",
"^.	c #FDC533",
"/.	c #1C6093",
"(.	c #9BBDE3",
"_.	c #E1F5FF",
":.	c #DEF3FF",
"<.	c #DBF2FF",
"[.	c #D7F1FF",
"}.	c #D4ECF9",
"|.	c #F0C463",
"1.	c #EDB800",
"2.	c #D9A954",
"3.	c #DFC547",
"4.	c #DAC244",
"5.	c #9B8441",
"6.	c #FDCE14",
"7.	c #FFB520",
"8.	c #9ABDE3",
"9.	c #EBFAFF",
"0.	c #E1F4FF",
"a.	c #D8F0FF",
"b.	c #D4EFFF",
"c.	c #D0EFFC",
"d.	c #E0CB9D",
"e.	c #F3D330",
"f.	c #F1DC59",
"g.	c #F2F5B1",
"h.	c #F2F5B2",
"i.	c #FEE55F",
"j.	c #E7CA2D",
"k.	c #EBFBFF",
"l.	c #E0F5FF",
"m.	c #DDF4FF",
"n.	c #D4F1FF",
"o.	c #D1EFFF",
"p.	c #C5F6FF",
"q.	c #E1B586",
"r.	c #BDA117",
"s.	c #FEFFEB",
"t.	c #CDB52B",
"u.	c #80430A",
"v.	c #93BDEA",
"w.	c #D0EDFF",
"x.	c #C9E9FF",
"y.	c #C7E8FF",
"z.	c #C4E7FF",
"A.	c #C2E6FF",
"B.	c #BFE5FF",
"C.	c #BBE5FF",
"D.	c #CBD6D2",
"E.	c #F3C74C",
"F.	c #EEE262",
"G.	c #FCFFCF",
"H.	c #F4E969",
"I.	c #CFA32A",
"J.	c #10649D",
"K.	c #14679F",
"L.	c #1266A0",
"M.	c #1A649B",
"N.	c #D19A2C",
"O.	c #FFE20E",
"P.	c #CA9321",
"Q.	c #D8CC59",
"R.	c #C9911F",
"S.	c #FFE81A",
"T.	c #FFC021",
"U.	c #8C5411",
"V.	c #F6C02E",
"W.	c #884F0F",
"X.	c #FBA21E",
". + @ # $ % & * = = = * - ;     ",
"> , ' ) ! ~ { ] ^ ^ ^ ^ / (     ",
"_ : < [ } | 1 2 3 4 5 6 7 8     ",
"9 0 a b c d e f g h i j k l     ",
"m n o p q r s t u v w x y z     ",
"A 0 B C D E F G H I J K L z     ",
"M N O P Q R S T U V W X Y Z     ",
"`  ...........+.@.#.$.%.&.*.    ",
"=.C -.;.>.,.'.).!.~.{.].^./.    ",
"(.E >._.:.<.[.}.|.1.2.3.4.5.6.7.",
"8.9.0.:.w a.b.c.d.e.f.g.h.i.j.  ",
"8.k.l.m.x [.n.o.p.q.r.s.s.t.u.  ",
"v.w.x.y.z.A.B.C.D.E.F.G.G.H.I.  ",
"J.K.z z z z L.M.N.O.P.Q.Q.R.S.T.",
"                  U.  V.V.  W.  ",
"                      X.X.      "};
